<svg width="101" height="26" viewBox="0 0 101 26" fill="none" xmlns="http://www.w3.org/2000/svg">
<path d="M15.4887 11.8181C15.4628 9.01062 17.8466 7.64473 17.9555 7.58107C16.6056 5.66207 14.5131 5.39987 13.7779 5.37898C12.0204 5.19866 10.3157 6.40427 9.42051 6.40427C8.50742 6.40427 7.12884 5.3964 5.64306 5.42602C3.73109 5.45476 1.94242 6.53406 0.961425 8.21001C-1.06311 11.6274 0.446804 16.6493 2.38647 19.4116C3.35675 20.7644 4.49052 22.2748 5.97452 22.2218C7.42635 22.1633 7.96868 21.3193 9.72071 21.3193C11.4567 21.3193 11.9659 22.2218 13.4794 22.1877C15.0376 22.1633 16.0186 20.8288 16.9548 19.4639C18.0762 17.9133 18.5265 16.3862 18.5443 16.3078C18.5077 16.2956 15.5182 15.1833 15.4887 11.8181Z" fill="white"/>
<path d="M12.6297 3.56194C13.4106 2.60983 13.9448 1.3145 13.7966 0C12.6663 0.0487818 11.2529 0.762215 10.439 1.69342C9.71887 2.514 9.07559 3.85899 9.24177 5.12383C10.5113 5.21617 11.8149 4.49925 12.6297 3.56194Z" fill="white"/>
<path d="M35.271 3.82903C35.271 4.85433 34.9556 5.62613 34.3258 6.14444C33.7424 6.62267 32.9132 6.86222 31.8394 6.86222C31.3068 6.86222 30.8511 6.83958 30.4697 6.79428V1.1922C30.9673 1.1138 31.5034 1.07373 32.0823 1.07373C33.1053 1.07373 33.8764 1.29064 34.3964 1.72444C34.9788 2.21488 35.271 2.91611 35.271 3.82903ZM34.2838 3.85431C34.2838 3.18964 34.1033 2.68005 33.7424 2.32464C33.3814 1.9701 32.8543 1.79239 32.1601 1.79239C31.8652 1.79239 31.6142 1.81156 31.406 1.85163V6.11046C31.5212 6.12789 31.7322 6.13572 32.0385 6.13572C32.7551 6.13572 33.3082 5.94147 33.6976 5.55296C34.0872 5.16444 34.2838 4.59823 34.2838 3.85431Z" fill="white"/>
<path d="M40.5049 4.72455C40.5049 5.3561 40.32 5.87353 39.9501 6.27947C39.5624 6.69673 39.0487 6.90492 38.4071 6.90492C37.7889 6.90492 37.2966 6.70544 36.9293 6.30473C36.5631 5.90489 36.3799 5.40052 36.3799 4.79249C36.3799 4.15659 36.5684 3.6348 36.9473 3.22973C37.326 2.82467 37.8353 2.6217 38.4768 2.6217C39.095 2.6217 39.5918 2.82119 39.968 3.22102C40.3253 3.60954 40.5049 4.11129 40.5049 4.72455ZM39.5338 4.75417C39.5338 4.37524 39.4498 4.05031 39.2827 3.7794C39.0862 3.45187 38.8065 3.2881 38.4429 3.2881C38.0667 3.2881 37.7809 3.45187 37.5843 3.7794C37.4164 4.05031 37.3333 4.38046 37.3333 4.77072C37.3333 5.14965 37.4172 5.47457 37.5843 5.74548C37.787 6.07302 38.0694 6.23678 38.4339 6.23678C38.7914 6.23678 39.0719 6.0704 39.2738 5.73677C39.4471 5.46063 39.5338 5.1331 39.5338 4.75417Z" fill="white"/>
<path d="M47.5242 2.70508L46.2062 6.81146H45.3485L44.8027 5.02831C44.6643 4.58318 44.5517 4.14066 44.464 3.70162H44.4472C44.3658 4.15285 44.2532 4.5945 44.1085 5.02831L43.5286 6.81146H42.6611L41.4219 2.70508H42.3841L42.8604 4.65722C42.9757 5.11891 43.0703 5.55881 43.1463 5.9752H43.1633C43.233 5.63199 43.3482 5.19469 43.5108 4.66593L44.1085 2.70595H44.8714L45.4442 4.62412C45.5827 5.0919 45.6952 5.54226 45.7819 5.97607H45.8078C45.8712 5.55359 45.9669 5.10323 46.0937 4.62412L46.6048 2.70595L47.5242 2.70508Z" fill="white"/>
<path d="M52.3778 6.81164H51.4414V4.45966C51.4414 3.7349 51.1592 3.37252 50.5927 3.37252C50.3149 3.37252 50.0905 3.47183 49.9163 3.67131C49.744 3.87079 49.6563 4.10599 49.6563 4.37516V6.81077H48.7201V3.87863C48.7201 3.518 48.7084 3.12687 48.686 2.70352H49.5089L49.5527 3.34552H49.5786C49.6877 3.14604 49.8502 2.9814 50.0637 2.84986C50.3175 2.69655 50.6017 2.61902 50.9126 2.61902C51.3056 2.61902 51.6326 2.74272 51.8926 2.99098C52.216 3.295 52.3778 3.74884 52.3778 4.35164V6.81164Z" fill="white"/>
<path d="M54.9606 6.81138H54.0251V0.820801H54.9606V6.81138Z" fill="white"/>
<path d="M60.4724 4.72455C60.4724 5.3561 60.2875 5.87353 59.9176 6.27947C59.5299 6.69673 59.0153 6.90492 58.3747 6.90492C57.7555 6.90492 57.2633 6.70544 56.8969 6.30473C56.5306 5.90489 56.3474 5.40052 56.3474 4.79249C56.3474 4.15659 56.536 3.6348 56.9148 3.22973C57.2936 2.82467 57.8028 2.6217 58.4434 2.6217C59.0626 2.6217 59.5584 2.82119 59.9356 3.22102C60.2928 3.60954 60.4724 4.11129 60.4724 4.72455ZM59.5004 4.75417C59.5004 4.37524 59.4164 4.05031 59.2494 3.7794C59.0537 3.45187 58.7731 3.2881 58.4105 3.2881C58.0333 3.2881 57.7475 3.45187 57.5518 3.7794C57.3839 4.05031 57.3008 4.38046 57.3008 4.77072C57.3008 5.14965 57.3847 5.47457 57.5518 5.74548C57.7546 6.07302 58.037 6.23678 58.4015 6.23678C58.7589 6.23678 59.0385 6.0704 59.2404 5.73677C59.4146 5.46063 59.5004 5.1331 59.5004 4.75417Z" fill="white"/>
<path d="M65.0042 6.81171H64.1636L64.0939 6.3387H64.068C63.7803 6.71589 63.3702 6.90492 62.8377 6.90492C62.4401 6.90492 62.1185 6.78035 61.8763 6.53296C61.6565 6.30821 61.5466 6.02859 61.5466 5.6967C61.5466 5.19494 61.7611 4.81253 62.1926 4.54771C62.6233 4.2829 63.2291 4.1531 64.009 4.1592V4.08254C64.009 3.54159 63.7177 3.27155 63.1343 3.27155C62.7189 3.27155 62.3526 3.37347 62.0363 3.57556L61.846 2.97624C62.2373 2.74017 62.7206 2.6217 63.2907 2.6217C64.3914 2.6217 64.9435 3.18792 64.9435 4.32036V5.83259C64.9435 6.24288 64.964 6.56955 65.0042 6.81171ZM64.0322 5.40052V4.76723C62.9994 4.74981 62.483 5.02595 62.483 5.59478C62.483 5.80907 62.542 5.96935 62.6626 6.0765C62.7832 6.18365 62.9369 6.23678 63.12 6.23678C63.3256 6.23678 63.5176 6.17319 63.6928 6.04688C63.8687 5.9197 63.9769 5.75855 64.0171 5.56081C64.0269 5.51638 64.0322 5.46237 64.0322 5.40052Z" fill="white"/>
<path d="M70.3249 6.81138H69.494L69.4503 6.15195H69.4243C69.159 6.65371 68.707 6.90459 68.0717 6.90459C67.5642 6.90459 67.1416 6.71033 66.8066 6.32182C66.4716 5.93331 66.3044 5.42894 66.3044 4.80958C66.3044 4.14493 66.4859 3.60659 66.8504 3.19543C67.2033 2.81214 67.6358 2.6205 68.1504 2.6205C68.7159 2.6205 69.1117 2.80605 69.3368 3.17801H69.3546V0.820801H70.292V5.70508C70.292 6.10491 70.3027 6.47339 70.3249 6.81138ZM69.3546 5.07963V4.39494C69.3546 4.27647 69.3458 4.18065 69.3288 4.10747C69.2761 3.88796 69.1626 3.70328 68.9901 3.55432C68.8159 3.40536 68.606 3.33045 68.3639 3.33045C68.0145 3.33045 67.7411 3.46547 67.5401 3.73638C67.3409 4.0073 67.2399 4.35313 67.2399 4.77561C67.2399 5.18154 67.3356 5.51082 67.5276 5.76431C67.7304 6.03436 68.0038 6.16938 68.346 6.16938C68.6533 6.16938 68.899 6.057 69.0858 5.83139C69.2662 5.62319 69.3546 5.37232 69.3546 5.07963Z" fill="white"/>
<path d="M78.333 4.72455C78.333 5.3561 78.1481 5.87353 77.7782 6.27947C77.3905 6.69673 76.8776 6.90492 76.2353 6.90492C75.6179 6.90492 75.1256 6.70544 74.7575 6.30473C74.3912 5.90489 74.208 5.40052 74.208 4.79249C74.208 4.15659 74.3966 3.6348 74.7753 3.22973C75.1542 2.82467 75.6634 2.6217 76.3058 2.6217C76.9232 2.6217 77.4208 2.82119 77.796 3.22102C78.1534 3.60954 78.333 4.11129 78.333 4.72455ZM77.3627 4.75417C77.3627 4.37524 77.2787 4.05031 77.1117 3.7794C76.9142 3.45187 76.6354 3.2881 76.2709 3.2881C75.8957 3.2881 75.6098 3.45187 75.4124 3.7794C75.2443 4.05031 75.1613 4.38046 75.1613 4.77072C75.1613 5.14965 75.2453 5.47457 75.4124 5.74548C75.6152 6.07302 75.8975 6.23678 76.2621 6.23678C76.6194 6.23678 76.9008 6.0704 77.1028 5.73677C77.2752 5.46063 77.3627 5.1331 77.3627 4.75417Z" fill="white"/>
<path d="M83.3668 6.81164H82.4314V4.45966C82.4314 3.7349 82.149 3.37252 81.5817 3.37252C81.3038 3.37252 81.0796 3.47183 80.9063 3.67131C80.7329 3.87079 80.6463 4.10599 80.6463 4.37516V6.81077H79.709V3.87863C79.709 3.518 79.6983 3.12687 79.676 2.70352H80.4979L80.5418 3.34552H80.5676C80.6775 3.14604 80.8401 2.9814 81.0528 2.84986C81.3074 2.69655 81.5906 2.61902 81.9024 2.61902C82.2947 2.61902 82.6217 2.74272 82.8817 2.99098C83.206 3.295 83.3668 3.74884 83.3668 4.35164V6.81164Z" fill="white"/>
<path d="M89.6687 3.38911H88.6377V5.38394C88.6377 5.89092 88.8209 6.14441 89.1836 6.14441C89.3516 6.14441 89.491 6.13047 89.6009 6.10173L89.625 6.79425C89.4401 6.8622 89.197 6.89617 88.8977 6.89617C88.5278 6.89617 88.2401 6.78641 88.032 6.56689C87.8229 6.34738 87.7193 5.97803 87.7193 5.45972V3.38911H87.1038V2.70529H87.7193V1.95266L88.6368 1.68262V2.70442H89.6679L89.6687 3.38911Z" fill="white"/>
<path d="M94.6257 6.81138H93.6885V4.47682C93.6885 3.74074 93.4062 3.37226 92.8406 3.37226C92.4064 3.37226 92.1098 3.58568 91.9471 4.01252C91.9195 4.10225 91.9034 4.21201 91.9034 4.34093V6.81051H90.968V0.820801H91.9034V3.29561H91.9213C92.2161 2.84524 92.6387 2.6205 93.1864 2.6205C93.5741 2.6205 93.8949 2.7442 94.1496 2.99246C94.4666 3.3017 94.6257 3.76165 94.6257 4.36968V6.81138Z" fill="white"/>
<path d="M99.7385 4.56417C99.7385 4.72794 99.7261 4.86557 99.7037 4.97794H96.8957C96.9081 5.38388 97.0421 5.69312 97.3021 5.90741C97.5399 6.09905 97.8462 6.19488 98.2215 6.19488C98.6369 6.19488 99.0158 6.13041 99.3571 6.00062L99.5036 6.63478C99.1042 6.80378 98.6342 6.88827 98.0901 6.88827C97.438 6.88827 96.9242 6.70099 96.5526 6.32641C96.1791 5.95184 95.9941 5.44921 95.9941 4.81853C95.9941 4.19918 96.1666 3.68348 96.5141 3.27232C96.8769 2.83329 97.3674 2.61377 97.9865 2.61377C98.5923 2.61377 99.0524 2.83329 99.3633 3.27232C99.6144 3.62077 99.7385 4.05196 99.7385 4.56417ZM98.8452 4.3281C98.8523 4.05719 98.7906 3.82373 98.6637 3.62686C98.5012 3.37337 98.2536 3.24619 97.9186 3.24619C97.613 3.24619 97.3638 3.36989 97.1735 3.61815C97.018 3.81589 96.9261 4.05196 96.8957 4.3281H98.8452Z" fill="white"/>
<path d="M39.3752 22.5533H37.3462L36.2348 19.1481H32.3715L31.3128 22.5533H29.3374L33.1649 10.9607H35.5289L39.3752 22.5533ZM35.8998 17.7195L34.8946 14.6925C34.7884 14.3832 34.5891 13.6549 34.2952 12.5086H34.2594C34.1424 13.0016 33.9538 13.7299 33.6948 14.6925L32.7075 17.7195H35.8998Z" fill="white"/>
<path d="M49.2188 18.2709C49.2188 19.6925 48.8248 20.8163 48.0368 21.6413C47.3311 22.3755 46.4546 22.7423 45.4084 22.7423C44.279 22.7423 43.4678 22.3468 42.9737 21.5559H42.938V25.9592H41.0331V16.946C41.0331 16.0523 41.009 15.1349 40.9626 14.1941H42.6378L42.7441 15.5191H42.7799C43.4151 14.5209 44.3791 14.0226 45.6728 14.0226C46.6842 14.0226 47.5285 14.4119 48.2039 15.1916C48.8811 15.9721 49.2188 16.9983 49.2188 18.2709ZM47.2783 18.3388C47.2783 17.5252 47.0907 16.8545 46.7137 16.3266C46.3018 15.776 45.7488 15.5008 45.0555 15.5008C44.5855 15.5008 44.1584 15.6541 43.777 15.9564C43.3945 16.2613 43.1444 16.6593 43.0273 17.1524C42.9683 17.3824 42.9388 17.5705 42.9388 17.7186V19.1124C42.9388 19.7204 43.1301 20.2336 43.5124 20.6525C43.8949 21.0716 44.3916 21.2806 45.0027 21.2806C45.7202 21.2806 46.2785 21.0106 46.6779 20.4722C47.0782 19.933 47.2783 19.2221 47.2783 18.3388Z" fill="white"/>
<path d="M59.0794 18.2709C59.0794 19.6925 58.6853 20.8163 57.8964 21.6413C57.1915 22.3755 56.315 22.7423 55.2687 22.7423C54.1395 22.7423 53.3282 22.3468 52.835 21.5559H52.7994V25.9592H50.8945V16.946C50.8945 16.0523 50.8703 15.1349 50.824 14.1941H52.4992L52.6054 15.5191H52.6412C53.2755 14.5209 54.2395 14.0226 55.5341 14.0226C56.5446 14.0226 57.3889 14.4119 58.0662 15.1916C58.7407 15.9721 59.0794 16.9983 59.0794 18.2709ZM57.1388 18.3388C57.1388 17.5252 56.9502 16.8545 56.5733 16.3266C56.1613 15.776 55.6101 15.5008 54.9159 15.5008C54.4451 15.5008 54.0189 15.6541 53.6364 15.9564C53.2541 16.2613 53.0048 16.6593 52.8878 17.1524C52.8297 17.3824 52.7994 17.5705 52.7994 17.7186V19.1124C52.7994 19.7204 52.9905 20.2336 53.3711 20.6525C53.7536 21.0706 54.2502 21.2806 54.8632 21.2806C55.5806 21.2806 56.139 21.0106 56.5384 20.4722C56.9386 19.933 57.1388 19.2221 57.1388 18.3388Z" fill="white"/>
<path d="M70.104 19.3024C70.104 20.2885 69.7529 21.0908 69.048 21.7101C68.2734 22.387 67.1949 22.725 65.8092 22.725C64.5299 22.725 63.5041 22.4846 62.7278 22.0028L63.1691 20.4549C64.0054 20.948 64.923 21.1954 65.9227 21.1954C66.6401 21.1954 67.1986 21.0368 67.5997 20.7215C67.999 20.4061 68.1983 19.9828 68.1983 19.4549C68.1983 18.9845 68.0339 18.5881 67.7042 18.2667C67.3764 17.9452 66.8287 17.6465 66.0638 17.3703C63.9822 16.6133 62.9422 15.5044 62.9422 14.0461C62.9422 13.0932 63.3067 12.3118 64.0367 11.7038C64.7639 11.0948 65.7342 10.7909 66.9475 10.7909C68.0295 10.7909 68.9283 10.9746 69.6457 11.3414L69.1695 12.8554C68.4994 12.5 67.7417 12.3223 66.8939 12.3223C66.2239 12.3223 65.7003 12.4834 65.325 12.8039C65.0078 13.0906 64.8489 13.4399 64.8489 13.8537C64.8489 14.3119 65.0302 14.6908 65.3947 14.9887C65.7119 15.2639 66.2882 15.5619 67.1244 15.8834C68.1474 16.2849 68.8988 16.7545 69.3821 17.2928C69.8637 17.8294 70.104 18.501 70.104 19.3024Z" fill="white"/>
<path d="M76.4022 15.588H74.3025V19.6464C74.3025 20.6787 74.6724 21.1944 75.4141 21.1944C75.7545 21.1944 76.0367 21.1656 76.2601 21.1081L76.3128 22.5185C75.9375 22.6552 75.4436 22.724 74.8315 22.724C74.0793 22.724 73.4913 22.5001 73.0669 22.0533C72.6444 21.6056 72.4317 20.8547 72.4317 19.7997V15.5862H71.1809V14.1925H72.4317V12.6619L74.3025 12.1113V14.1925H76.4022V15.588Z" fill="white"/>
<path d="M85.8747 18.305C85.8747 19.5899 85.4977 20.6447 84.7455 21.4698C83.9566 22.319 82.9095 22.7424 81.6042 22.7424C80.3462 22.7424 79.3447 22.3356 78.5977 21.522C77.8508 20.7084 77.4773 19.6813 77.4773 18.4435C77.4773 17.1481 77.8615 16.0871 78.6325 15.2623C79.4018 14.4365 80.44 14.0236 81.7453 14.0236C83.0033 14.0236 84.0155 14.4303 84.7794 15.2448C85.5102 16.0349 85.8747 17.055 85.8747 18.305ZM83.8985 18.3651C83.8985 17.5941 83.7297 16.933 83.3874 16.3816C82.988 15.7143 82.4171 15.3815 81.6774 15.3815C80.9117 15.3815 80.3301 15.7152 79.9307 16.3816C79.5886 16.9338 79.4197 17.6055 79.4197 18.4C79.4197 19.1708 79.5886 19.8321 79.9307 20.3826C80.3426 21.0499 80.918 21.3826 81.6605 21.3826C82.3876 21.3826 82.9585 21.0429 83.3705 20.3652C83.7216 19.8033 83.8985 19.1352 83.8985 18.3651Z" fill="white"/>
<path d="M92.0669 15.8275C91.8784 15.7935 91.6774 15.776 91.4666 15.776C90.7965 15.776 90.2782 16.0226 89.9137 16.5165C89.5966 16.952 89.4376 17.5026 89.4376 18.1673V22.5532H87.5336L87.5514 16.8266C87.5514 15.8632 87.5273 14.986 87.48 14.1951H89.1391L89.2088 15.7944H89.2616C89.4626 15.2447 89.7797 14.8022 90.2139 14.4703C90.6383 14.1715 91.0967 14.0226 91.5908 14.0226C91.7667 14.0226 91.9258 14.0348 92.0669 14.0565V15.8275Z" fill="white"/>
<path d="M100.586 17.9781C100.586 18.3109 100.563 18.5914 100.516 18.8204H94.8014C94.8238 19.6462 95.0998 20.2779 95.6305 20.7134C96.1121 21.1027 96.7348 21.2979 97.4995 21.2979C98.3457 21.2979 99.1176 21.1664 99.8118 20.9024L100.11 22.1916C99.299 22.5366 98.3411 22.7082 97.2361 22.7082C95.9066 22.7082 94.863 22.3267 94.1036 21.5644C93.346 20.8023 92.9663 19.7786 92.9663 18.4946C92.9663 17.2342 93.3192 16.1845 94.0258 15.3474C94.7656 14.4537 95.7654 14.0067 97.0234 14.0067C98.259 14.0067 99.1944 14.4537 99.8297 15.3474C100.333 16.0573 100.586 16.9354 100.586 17.9781ZM98.7692 17.4964C98.7817 16.9458 98.6574 16.4702 98.3993 16.0687C98.0696 15.5521 97.563 15.2942 96.8813 15.2942C96.2585 15.2942 95.752 15.546 95.3652 16.0513C95.048 16.4528 94.8594 16.9346 94.8014 17.4956L98.7692 17.4964Z" fill="white"/>
</svg>
