<svg width="131" height="40" viewBox="0 0 131 40" fill="none" xmlns="http://www.w3.org/2000/svg">
<path d="M17.9034 19.2312C17.8755 16.1989 20.4501 14.7236 20.5678 14.6548C19.1097 12.5821 16.8496 12.2989 16.0555 12.2763C14.1573 12.0816 12.3161 13.3837 11.3491 13.3837C10.3629 13.3837 8.87391 12.2951 7.26912 12.3271C5.20401 12.3582 3.27208 13.5239 2.2125 15.3341C0.0258139 19.0252 1.65666 24.4493 3.75169 27.4329C4.79968 28.894 6.02427 30.5255 7.62713 30.4682C9.19526 30.4051 9.78102 29.4934 11.6734 29.4934C13.5484 29.4934 14.0984 30.4682 15.7331 30.4314C17.4162 30.4051 18.4757 28.9637 19.487 27.4894C20.6981 25.8146 21.1844 24.1652 21.2037 24.0805C21.1642 24.0673 17.9352 22.8659 17.9034 19.2312Z" fill="white"/>
<path d="M14.8153 10.3137C15.6587 9.2853 16.2357 7.88621 16.0756 6.46643C14.8548 6.51912 13.3282 7.2897 12.4491 8.29549C11.6713 9.1818 10.9765 10.6345 11.156 12.0007C12.5273 12.1004 13.9352 11.3261 14.8153 10.3137Z" fill="white"/>
<path d="M39.2701 10.6022C39.2701 11.7096 38.9295 12.5433 38.2491 13.1031C37.619 13.6196 36.7235 13.8784 35.5636 13.8784C34.9883 13.8784 34.4962 13.8539 34.0842 13.805V7.75418C34.6217 7.6695 35.2007 7.62622 35.826 7.62622C36.9309 7.62622 37.7638 7.8605 38.3254 8.32906C38.9545 8.85877 39.2701 9.61617 39.2701 10.6022ZM38.2038 10.6295C38.2038 9.91161 38.0088 9.3612 37.619 8.97732C37.2291 8.59438 36.6598 8.40244 35.91 8.40244C35.5915 8.40244 35.3204 8.42314 35.0955 8.46642V13.0664C35.2199 13.0852 35.4478 13.0937 35.7787 13.0937C36.5527 13.0937 37.15 12.8839 37.5707 12.4642C37.9915 12.0446 38.2038 11.433 38.2038 10.6295Z" fill="white"/>
<path d="M44.9232 11.5694C44.9232 12.2516 44.7234 12.8104 44.3239 13.2489C43.9052 13.6996 43.3503 13.9244 42.6574 13.9244C41.9897 13.9244 41.4579 13.709 41.0612 13.2762C40.6656 12.8443 40.4678 12.2996 40.4678 11.6428C40.4678 10.956 40.6714 10.3924 41.0806 9.95489C41.4897 9.51738 42.0398 9.29816 42.7327 9.29816C43.4004 9.29816 43.937 9.51362 44.3433 9.94548C44.7292 10.3651 44.9232 10.9071 44.9232 11.5694ZM43.8743 11.6014C43.8743 11.1921 43.7836 10.8412 43.6031 10.5486C43.3909 10.1948 43.0888 10.0179 42.6961 10.0179C42.2897 10.0179 41.981 10.1948 41.7686 10.5486C41.5873 10.8412 41.4975 11.1978 41.4975 11.6193C41.4975 12.0286 41.5881 12.3795 41.7686 12.6721C41.9876 13.0259 42.2926 13.2028 42.6864 13.2028C43.0724 13.2028 43.3754 13.0231 43.5935 12.6627C43.7807 12.3645 43.8743 12.0107 43.8743 11.6014Z" fill="white"/>
<path d="M52.5046 9.38824L51.0812 13.8235H50.1548L49.5652 11.8976C49.4157 11.4168 49.2941 10.9388 49.1994 10.4646H49.1812C49.0933 10.952 48.9717 11.429 48.8154 11.8976L48.189 13.8235H47.2521L45.9136 9.38824H46.9529L47.4673 11.4967C47.5918 11.9954 47.694 12.4706 47.7761 12.9203H47.7945C47.8697 12.5496 47.9942 12.0773 48.1698 11.5062L48.8154 9.38919H49.6394L50.2581 11.461C50.4076 11.9662 50.5292 12.4527 50.6229 12.9212H50.6508C50.7193 12.4649 50.8226 11.9785 50.9596 11.461L51.5116 9.38919L52.5046 9.38824Z" fill="white"/>
<path d="M57.7472 13.8238H56.7358V11.2834C56.7358 10.5006 56.431 10.1092 55.8191 10.1092C55.5191 10.1092 55.2767 10.2165 55.0886 10.4319C54.9024 10.6474 54.8078 10.9014 54.8078 11.1922V13.8228H53.7965V10.6559C53.7965 10.2663 53.7839 9.84388 53.7598 9.38661H54.6485L54.6959 10.08H54.7238C54.8416 9.86458 55.0172 9.68675 55.2478 9.54468C55.522 9.37909 55.8288 9.29535 56.1646 9.29535C56.5892 9.29535 56.9424 9.42895 57.2232 9.6971C57.5725 10.0255 57.7472 10.5157 57.7472 11.1668V13.8238Z" fill="white"/>
<path d="M60.5367 13.8235H59.5264V7.35309H60.5367V13.8235Z" fill="white"/>
<path d="M66.4901 11.5694C66.4901 12.2516 66.2903 12.8104 65.8908 13.2489C65.4721 13.6996 64.9162 13.9244 64.2243 13.9244C63.5556 13.9244 63.0239 13.709 62.6281 13.2762C62.2325 12.8443 62.0347 12.2996 62.0347 11.6428C62.0347 10.956 62.2383 10.3924 62.6475 9.95489C63.0566 9.51738 63.6067 9.29816 64.2986 9.29816C64.9673 9.29816 65.5029 9.51362 65.9102 9.94548C66.2961 10.3651 66.4901 10.9071 66.4901 11.5694ZM65.4402 11.6014C65.4402 11.1921 65.3495 10.8412 65.1691 10.5486C64.9578 10.1948 64.6547 10.0179 64.263 10.0179C63.8556 10.0179 63.5469 10.1948 63.3355 10.5486C63.1542 10.8412 63.0644 11.1978 63.0644 11.6193C63.0644 12.0286 63.155 12.3795 63.3355 12.6721C63.5545 13.0259 63.8595 13.2028 64.2533 13.2028C64.6393 13.2028 64.9413 13.0231 65.1594 12.6627C65.3476 12.3645 65.4402 12.0107 65.4402 11.6014Z" fill="white"/>
<path d="M71.3847 13.8238H70.4767L70.4014 13.3129H70.3735C70.0627 13.7203 69.6198 13.9244 69.0447 13.9244C68.6152 13.9244 68.2678 13.7899 68.0062 13.5227C67.7688 13.2799 67.6501 12.9779 67.6501 12.6195C67.6501 12.0775 67.8817 11.6645 68.3478 11.3784C68.8131 11.0924 69.4673 10.9522 70.3098 10.9588V10.876C70.3098 10.2917 69.9951 10.0001 69.365 10.0001C68.9163 10.0001 68.5207 10.1101 68.1791 10.3284L67.9735 9.68109C68.3962 9.42612 68.9182 9.29816 69.5339 9.29816C70.7228 9.29816 71.3191 9.90973 71.3191 11.1329V12.7662C71.3191 13.2094 71.3413 13.5622 71.3847 13.8238ZM70.3348 12.2996V11.6155C69.2192 11.5967 68.6615 11.895 68.6615 12.5094C68.6615 12.7408 68.7252 12.9139 68.8555 13.0297C68.9858 13.1454 69.1518 13.2028 69.3495 13.2028C69.5716 13.2028 69.779 13.1341 69.9682 12.9977C70.1582 12.8603 70.275 12.6863 70.3185 12.4727C70.329 12.4247 70.3348 12.3664 70.3348 12.2996Z" fill="white"/>
<path d="M77.1318 13.8235H76.2344L76.1872 13.1113H76.1591C75.8725 13.6532 75.3842 13.9242 74.6981 13.9242C74.15 13.9242 73.6936 13.7144 73.3317 13.2947C72.9698 12.8751 72.7893 12.3303 72.7893 11.6614C72.7893 10.9435 72.9853 10.362 73.379 9.91792C73.7601 9.50393 74.2273 9.29694 74.7831 9.29694C75.3939 9.29694 75.8214 9.49735 76.0646 9.8991H76.0838V7.35309H77.0962V12.6286C77.0962 13.0604 77.1078 13.4584 77.1318 13.8235ZM76.0838 11.953V11.2135C76.0838 11.0855 76.0743 10.982 76.0559 10.903C75.999 10.6659 75.8764 10.4664 75.6901 10.3056C75.5019 10.1447 75.2752 10.0638 75.0137 10.0638C74.6363 10.0638 74.341 10.2096 74.1239 10.5022C73.9088 10.7948 73.7997 11.1683 73.7997 11.6247C73.7997 12.0631 73.903 12.4188 74.1104 12.6926C74.3295 12.9842 74.6247 13.1301 74.9944 13.1301C75.3263 13.1301 75.5917 13.0087 75.7935 12.765C75.9883 12.5401 76.0838 12.2692 76.0838 11.953Z" fill="white"/>
<path d="M85.7813 11.5694C85.7813 12.2516 85.5816 12.8104 85.1821 13.2489C84.7633 13.6996 84.2094 13.9244 83.5156 13.9244C82.8487 13.9244 82.317 13.709 81.9194 13.2762C81.5238 12.8443 81.3259 12.2996 81.3259 11.6428C81.3259 10.956 81.5296 10.3924 81.9387 9.95489C82.3479 9.51738 82.8979 9.29816 83.5917 9.29816C84.2586 9.29816 84.796 9.51362 85.2013 9.94548C85.5874 10.3651 85.7813 10.9071 85.7813 11.5694ZM84.7333 11.6014C84.7333 11.1921 84.6426 10.8412 84.4622 10.5486C84.2489 10.1948 83.9478 10.0179 83.5541 10.0179C83.1488 10.0179 82.84 10.1948 82.6268 10.5486C82.4453 10.8412 82.3555 11.1978 82.3555 11.6193C82.3555 12.0286 82.4463 12.3795 82.6268 12.6721C82.8458 13.0259 83.1508 13.2028 83.5445 13.2028C83.9304 13.2028 84.2344 13.0231 84.4525 12.6627C84.6388 12.3645 84.7333 12.0107 84.7333 11.6014Z" fill="white"/>
<path d="M91.2184 13.8238H90.208V11.2834C90.208 10.5006 89.903 10.1092 89.2903 10.1092C88.9901 10.1092 88.7479 10.2165 88.5607 10.4319C88.3734 10.6474 88.2799 10.9014 88.2799 11.1922V13.8228H87.2675V10.6559C87.2675 10.2663 87.256 9.84388 87.2319 9.38661H88.1197L88.167 10.08H88.195C88.3137 9.86458 88.4892 9.68675 88.719 9.54468C88.994 9.37909 89.2998 9.29535 89.6367 9.29535C90.0604 9.29535 90.4135 9.42895 90.6944 9.6971C91.0447 10.0255 91.2184 10.5157 91.2184 11.1668V13.8238Z" fill="white"/>
<path d="M98.025 10.1271H96.9114V12.2817C96.9114 12.8293 97.1093 13.1031 97.501 13.1031C97.6825 13.1031 97.8331 13.0881 97.9518 13.057L97.9778 13.805C97.7781 13.8784 97.5155 13.9151 97.1923 13.9151C96.7928 13.9151 96.482 13.7965 96.2572 13.5594C96.0314 13.3223 95.9195 12.9234 95.9195 12.3636V10.1271H95.2546V9.38852H95.9195V8.57561L96.9104 8.28394V9.38758H98.0241L98.025 10.1271Z" fill="white"/>
<path d="M103.379 13.8235H102.367V11.3019C102.367 10.5069 102.062 10.1089 101.451 10.1089C100.982 10.1089 100.661 10.3394 100.486 10.8005C100.456 10.8974 100.439 11.0159 100.439 11.1552V13.8226H99.4282V7.35309H100.439V10.0261H100.458C100.776 9.53969 101.233 9.29694 101.824 9.29694C102.243 9.29694 102.59 9.43054 102.865 9.69869C103.207 10.0327 103.379 10.5295 103.379 11.1862V13.8235Z" fill="white"/>
<path d="M108.901 11.3963C108.901 11.5732 108.888 11.7218 108.864 11.8432H105.831C105.844 12.2817 105.989 12.6157 106.27 12.8471C106.526 13.0541 106.857 13.1576 107.263 13.1576C107.711 13.1576 108.121 13.088 108.489 12.9478L108.648 13.6328C108.216 13.8153 107.709 13.9066 107.121 13.9066C106.416 13.9066 105.861 13.7043 105.46 13.2997C105.057 12.8951 104.857 12.3522 104.857 11.671C104.857 11.0021 105.043 10.4451 105.419 10.001C105.81 9.52677 106.34 9.28967 107.009 9.28967C107.663 9.28967 108.16 9.52677 108.496 10.001C108.767 10.3773 108.901 10.8431 108.901 11.3963ZM107.936 11.1413C107.944 10.8487 107.877 10.5966 107.74 10.3839C107.565 10.1101 107.297 9.97275 106.936 9.97275C106.606 9.97275 106.336 10.1064 106.131 10.3745C105.963 10.5881 105.864 10.8431 105.831 11.1413H107.936Z" fill="white"/>
<path d="M43.7031 30.8263H41.5116L40.3112 27.1483H36.1385L34.9949 30.8263H32.8613L36.9954 18.3051H39.5488L43.7031 30.8263ZM39.9493 25.6053L38.8637 22.3358C38.7489 22.0017 38.5337 21.2152 38.2162 19.977H38.1776C38.0512 20.5095 37.8475 21.2961 37.5677 22.3358L36.5014 25.6053H39.9493Z" fill="white"/>
<path d="M54.335 26.2008C54.335 27.7363 53.9094 28.9501 53.0583 29.8411C52.296 30.6342 51.3493 31.0304 50.2193 31.0304C48.9995 31.0304 48.1233 30.6033 47.5896 29.7489H47.5511V34.505H45.4936V24.7698C45.4936 23.8045 45.4676 22.8137 45.4175 21.7975H47.2269L47.3416 23.2287H47.3803C48.0664 22.1504 49.1076 21.6122 50.5049 21.6122C51.5973 21.6122 52.5092 22.0327 53.2388 22.8749C53.9702 23.7179 54.335 24.8263 54.335 26.2008ZM52.239 26.2742C52.239 25.3954 52.0363 24.671 51.6291 24.1008C51.1843 23.5062 50.5869 23.2088 49.8382 23.2088C49.3305 23.2088 48.8692 23.3744 48.4572 23.701C48.0441 24.0303 47.774 24.4602 47.6475 24.9927C47.5838 25.2411 47.552 25.4444 47.552 25.6043V27.1097C47.552 27.7664 47.7585 28.3207 48.1715 28.7732C48.5846 29.2258 49.1211 29.4516 49.7811 29.4516C50.5561 29.4516 51.1591 29.16 51.5905 28.5785C52.0229 27.996 52.239 27.2283 52.239 26.2742Z" fill="white"/>
<path d="M64.9855 26.2008C64.9855 27.7363 64.5599 28.9501 63.7077 29.8411C62.9464 30.6342 61.9997 31.0304 60.8696 31.0304C59.65 31.0304 58.7736 30.6033 58.241 29.7489H58.2025V34.505H56.145V24.7698C56.145 23.8045 56.1189 22.8137 56.0688 21.7975H57.8782L57.993 23.2287H58.0317C58.7168 22.1504 59.758 21.6122 61.1562 21.6122C62.2477 21.6122 63.1596 22.0327 63.8911 22.8749C64.6197 23.7179 64.9855 24.8263 64.9855 26.2008ZM62.8895 26.2742C62.8895 25.3954 62.6858 24.671 62.2786 24.1008C61.8337 23.5062 61.2383 23.2088 60.4885 23.2088C59.98 23.2088 59.5197 23.3744 59.1066 23.701C58.6936 24.0303 58.4244 24.4602 58.298 24.9927C58.2352 25.2411 58.2025 25.4444 58.2025 25.6043V27.1097C58.2025 27.7664 58.4089 28.3207 58.82 28.7732C59.2331 29.2248 59.7695 29.4516 60.4316 29.4516C61.2065 29.4516 61.8096 29.16 62.241 28.5785C62.6732 27.996 62.8895 27.2283 62.8895 26.2742Z" fill="white"/>
<path d="M76.8931 27.3149C76.8931 28.38 76.5138 29.2466 75.7524 29.9155C74.9158 30.6467 73.751 31.0117 72.2543 31.0117C70.8725 31.0117 69.7646 30.752 68.926 30.2317L69.4027 28.5598C70.3059 29.0923 71.297 29.3595 72.3769 29.3595C73.1517 29.3595 73.7549 29.1883 74.1881 28.8477C74.6195 28.5071 74.8347 28.0498 74.8347 27.4797C74.8347 26.9716 74.6571 26.5434 74.301 26.1963C73.947 25.8491 73.3554 25.5264 72.5293 25.2281C70.2809 24.4105 69.1576 23.2127 69.1576 21.6377C69.1576 20.6084 69.5513 19.7645 70.3398 19.1077C71.1252 18.45 72.1732 18.1217 73.4838 18.1217C74.6523 18.1217 75.6232 18.3202 76.398 18.7163L75.8837 20.3516C75.16 19.9677 74.3416 19.7758 73.4259 19.7758C72.7021 19.7758 72.1366 19.9498 71.7313 20.296C71.3887 20.6056 71.217 20.9828 71.217 21.4298C71.217 21.9247 71.4128 22.3339 71.8066 22.6557C72.1492 22.953 72.7716 23.2748 73.6748 23.6221C74.7797 24.0557 75.5913 24.5629 76.1133 25.1444C76.6335 25.724 76.8931 26.4493 76.8931 27.3149Z" fill="white"/>
<path d="M83.6959 23.303H81.4281V27.6865C81.4281 28.8015 81.8276 29.3585 82.6286 29.3585C82.9963 29.3585 83.3011 29.3274 83.5424 29.2653L83.5993 30.7886C83.194 30.9363 82.6605 31.0107 81.9994 31.0107C81.1869 31.0107 80.5519 30.7688 80.0935 30.2862C79.6371 29.8026 79.4074 28.9916 79.4074 27.8521V23.3011H78.0564V21.7957H79.4074V20.1425L81.4281 19.5479V21.7957H83.6959V23.303Z" fill="white"/>
<path d="M93.927 26.2376C93.927 27.6254 93.5198 28.7648 92.7073 29.6558C91.8552 30.5731 90.7242 31.0304 89.3144 31.0304C87.9556 31.0304 86.8739 30.5911 86.067 29.7123C85.2604 28.8335 84.8569 27.7241 84.8569 26.3872C84.8569 24.9881 85.2719 23.8421 86.1047 22.9511C86.9355 22.0592 88.0569 21.6132 89.4668 21.6132C90.8256 21.6132 91.9189 22.0525 92.7439 22.9323C93.5333 23.7856 93.927 24.8875 93.927 26.2376ZM91.7925 26.3025C91.7925 25.4698 91.6101 24.7557 91.2404 24.1601C90.8091 23.4394 90.1924 23.08 89.3934 23.08C88.5664 23.08 87.9382 23.4404 87.5069 24.1601C87.1373 24.7566 86.9549 25.4821 86.9549 26.3402C86.9549 27.1728 87.1373 27.887 87.5069 28.4816C87.9517 29.2023 88.5732 29.5617 89.3752 29.5617C90.1606 29.5617 90.7772 29.1948 91.2222 28.4628C91.6014 27.8559 91.7925 27.1343 91.7925 26.3025Z" fill="white"/>
<path d="M100.615 23.5617C100.412 23.525 100.194 23.5062 99.9668 23.5062C99.243 23.5062 98.6833 23.7725 98.2896 24.3059C97.9471 24.7763 97.7753 25.371 97.7753 26.0889V30.8262H95.7188L95.738 24.6409C95.738 23.6002 95.712 22.6529 95.6609 21.7985H97.4529L97.5282 23.526H97.5852C97.8023 22.9322 98.1448 22.4543 98.6138 22.0959C99.0722 21.7731 99.5673 21.6122 100.101 21.6122C100.291 21.6122 100.463 21.6254 100.615 21.6489V23.5617Z" fill="white"/>
<path d="M109.816 25.8847C109.816 26.2441 109.792 26.5471 109.741 26.7944H103.569C103.593 27.6864 103.891 28.3686 104.464 28.839C104.984 29.2595 105.657 29.4703 106.483 29.4703C107.397 29.4703 108.231 29.3283 108.981 29.0431L109.303 30.4356C108.427 30.8082 107.392 30.9936 106.198 30.9936C104.762 30.9936 103.635 30.5815 102.815 29.7582C101.997 28.935 101.587 27.8294 101.587 26.4426C101.587 25.0812 101.968 23.9473 102.731 23.0432C103.53 22.0779 104.61 21.5952 105.969 21.5952C107.303 21.5952 108.314 22.0779 109 23.0432C109.543 23.81 109.816 24.7584 109.816 25.8847ZM107.854 25.3643C107.868 24.7697 107.734 24.256 107.455 23.8223C107.099 23.2643 106.552 22.9858 105.815 22.9858C105.143 22.9858 104.595 23.2578 104.178 23.8035C103.835 24.2371 103.631 24.7575 103.569 25.3634L107.854 25.3643Z" fill="white"/>
</svg>
