<svg width="59" height="60" viewBox="0 0 59 60" fill="none" xmlns="http://www.w3.org/2000/svg">
<rect x="59.0027" y="0.99725" width="59.0027" height="59.0028" rx="12" transform="rotate(90 59.0027 0.99725)" fill="#000727"/>
<path d="M30 54.4321C41.9789 54.4321 51.6897 44.7213 51.6897 32.7424C51.6897 20.7635 41.9789 11.0527 30 11.0527C18.0211 11.0527 8.31024 20.7635 8.31024 32.7424C8.31024 44.7213 18.0211 54.4321 30 54.4321Z" fill="url(#paint0_linear_223_105)"/>
<path d="M50.4375 32.8536C50.4509 32.3706 50.5212 31.9578 50.6483 31.6152C50.7754 31.2725 50.9335 30.9928 51.1224 30.776C51.3113 30.5592 51.515 30.3983 51.7335 30.2933C51.9585 30.1886 52.1722 30.1357 52.3747 30.1348C52.4335 30.1365 52.4819 30.1574 52.5199 30.1977C52.558 30.2379 52.5762 30.2874 52.5746 30.3461L52.5446 31.423C52.5426 31.4948 52.5246 31.5531 52.4907 31.5979C52.4634 31.6429 52.4132 31.6839 52.3403 31.7211C52.1888 31.7691 52.0657 31.8506 51.971 31.9655C51.8764 32.0805 51.8073 32.2157 51.7638 32.3712C51.7266 32.5335 51.7055 32.706 51.7004 32.8887C51.6902 33.2542 51.7671 33.5438 51.9309 33.7573C52.0948 33.9709 52.3301 34.082 52.6369 34.0905C52.9502 34.0992 53.178 34.0076 53.3206 33.8156C53.4631 33.6236 53.5393 33.3482 53.5493 32.9892L53.5785 31.9417C53.5803 31.8764 53.6047 31.8216 53.6516 31.7772C53.6986 31.7328 53.7547 31.7115 53.82 31.7133L54.2997 31.7266C54.378 31.7288 54.4429 31.7437 54.4944 31.7713C54.5457 31.8053 54.5839 31.8391 54.6091 31.8724L56.1091 33.5994L56.1859 30.8386C56.1879 30.7668 56.2124 30.7087 56.2594 30.6643C56.3063 30.6199 56.3624 30.5986 56.4277 30.6004L57.2109 30.6222C57.2827 30.6242 57.3408 30.6487 57.3852 30.6956C57.4296 30.7426 57.4508 30.802 57.4488 30.8738L57.3278 35.2205C57.3258 35.2923 57.3013 35.3504 57.2544 35.3948C57.2074 35.4392 57.148 35.4604 57.0762 35.4584L56.3714 35.4388C56.2996 35.4368 56.2379 35.422 56.1864 35.3944C56.1415 35.3671 56.1065 35.3334 56.0815 35.2935L54.5497 33.6539L54.5372 33.7515C54.4873 34.1355 54.3832 34.4755 54.2247 34.7716C54.0662 35.0676 53.8443 35.2966 53.5589 35.4584C53.2799 35.627 52.9283 35.7054 52.5041 35.6936C52.0603 35.6812 51.6818 35.5499 51.3687 35.2995C51.0557 35.0491 50.8168 34.7126 50.6522 34.29C50.4942 33.8676 50.4226 33.3888 50.4375 32.8536Z" fill="url(#paint1_linear_223_105)"/>
<path d="M45.2371 18.992C45.1744 18.9423 45.1353 18.8757 45.1199 18.792C45.1107 18.7132 45.1335 18.6394 45.1882 18.5703L48.8931 13.8919L46.7101 13.8634C46.6188 13.8626 46.5468 13.831 46.494 13.7688C46.4474 13.7115 46.4246 13.6372 46.4254 13.546L46.4392 12.5614C46.4463 12.4751 46.4778 12.403 46.5338 12.3452C46.5961 12.2924 46.6703 12.2696 46.7566 12.2766L50.2149 12.3195C50.2724 12.3242 50.3193 12.3359 50.3557 12.3545C50.4033 12.3717 50.449 12.3978 50.493 12.4325L51.4908 13.2227C51.5535 13.2724 51.5895 13.3366 51.5986 13.4153C51.6078 13.4941 51.585 13.5679 51.5303 13.637L46.6849 19.7556C46.6302 19.8246 46.5635 19.8637 46.4848 19.8729C46.4061 19.882 46.3354 19.8617 46.2726 19.812L45.2371 18.992Z" fill="url(#paint2_linear_223_105)"/>
<path d="M9.41593 36.3365C9.41486 36.4103 9.39049 36.4704 9.34283 36.5167C9.29516 36.563 9.23441 36.5856 9.16058 36.5845L8.55649 36.5758C8.50279 36.575 8.43251 36.5606 8.34564 36.5324C8.25216 36.4975 8.16257 36.4257 8.07687 36.3171L6.77721 34.969C6.40844 34.4735 6.09536 34.0729 5.83797 33.767C5.58067 33.4545 5.3457 33.2228 5.13305 33.072C4.92041 32.9213 4.7134 32.8444 4.51204 32.8415C4.25027 32.8377 4.03441 32.9084 3.86447 33.0537C3.68791 33.1921 3.5973 33.4224 3.59263 33.7446C3.58951 33.9593 3.63387 34.1413 3.7257 34.2903C3.81091 34.4325 3.92677 34.545 4.07327 34.6276C4.21976 34.7103 4.38008 34.7664 4.5542 34.7957C4.64117 34.8171 4.70094 34.8616 4.73353 34.9293C4.76621 34.9901 4.78207 35.0542 4.7811 35.1213L4.76562 36.1885C4.76465 36.2556 4.74374 36.309 4.70288 36.3487C4.65531 36.3883 4.60468 36.4077 4.55098 36.4069C4.24232 36.3957 3.95127 36.3277 3.67783 36.2029C3.40448 36.0714 3.16207 35.89 2.95059 35.6587C2.73911 35.4273 2.5753 35.1497 2.45915 34.8258C2.3363 34.5018 2.27783 34.135 2.28377 33.7256C2.29194 33.1618 2.39277 32.6899 2.58626 32.3101C2.77303 31.9301 3.02892 31.6451 3.35392 31.4552C3.67892 31.2652 4.05286 31.1733 4.47572 31.1794C4.7979 31.1841 5.09561 31.2555 5.36886 31.3937C5.64221 31.5253 5.90461 31.717 6.15607 31.9691C6.40082 32.221 6.65495 32.5201 6.91847 32.8663L8.08929 34.0716L8.12899 31.333C8.13006 31.2592 8.15443 31.1991 8.20209 31.1528C8.24976 31.1065 8.31051 31.0839 8.38434 31.085L9.24013 31.0974C9.31397 31.0985 9.37403 31.1228 9.42034 31.1705C9.46664 31.2182 9.48926 31.2789 9.48819 31.3528L9.41593 36.3365Z" fill="url(#paint3_linear_223_105)"/>
<path d="M14.3855 13.1326L13.8752 13.586L12.666 12.2254C12.332 11.8495 11.757 11.8156 11.3811 12.1496L10.0204 13.3588L9.56694 12.8485C9.14977 12.3791 8.43019 12.3367 7.96075 12.7538C7.49131 13.171 7.44889 13.8906 7.86606 14.36L8.31951 14.8703L6.95881 16.0795C6.58293 16.4135 6.55242 16.9855 6.88647 17.3614L8.0335 18.6556L8.54206 18.2036C9.04892 17.7532 9.8263 17.799 10.2767 18.3059C10.7272 18.8128 10.6813 19.5902 10.1745 20.0406L9.66591 20.4925L10.8129 21.7867C11.147 22.1626 11.722 22.1965 12.0979 21.8624L13.3905 20.7137L12.9371 20.2034C12.4867 19.6966 12.5325 18.9192 13.0394 18.4688C13.5462 18.0183 14.3236 18.0642 14.774 18.571L15.2275 19.0813L16.5201 17.9326C16.896 17.5985 16.9299 17.0235 16.5959 16.6476L15.3867 15.2869L15.897 14.8335C16.3664 14.4163 16.4088 13.6968 15.9917 13.2273C15.5745 12.7579 14.8549 12.7154 14.3855 13.1326Z" fill="url(#paint4_linear_223_105)"/>
<path d="M31.0341 12.2371L31.0327 13.0215C31.0317 13.5976 30.5628 14.0619 29.9829 14.0608L29.2843 14.0596C28.7044 14.0586 28.2371 13.5927 28.2381 13.0166L28.2395 12.2322C28.2398 12.0379 28.3938 11.8623 28.5895 11.8626L30.6854 11.8663C30.8811 11.8667 31.0344 12.0427 31.0341 12.2371Z" fill="#FEA832"/>
<path d="M31.0343 12.2371L31.0329 13.0214C31.0319 13.5975 30.563 14.0618 29.9831 14.0608L29.6338 14.0602L29.6377 11.8644L30.6856 11.8663C30.8813 11.8666 31.0347 12.0427 31.0343 12.2371Z" fill="#FE9923"/>
<path d="M29.6496 5.01538C31.3567 5.01845 32.7702 6.39511 32.7672 8.14389C32.7657 8.97664 32.4381 9.76049 31.8541 10.3493C31.5483 10.6472 31.3733 11.0839 31.3726 11.535L31.3724 11.6112C31.3714 12.1872 30.9056 12.6748 30.3295 12.6738L28.9418 12.6714C28.3659 12.6703 27.9017 12.181 27.9027 11.6051L27.9028 11.5289C27.9036 11.0709 27.7378 10.6472 27.4537 10.3621C26.6572 9.57656 26.3476 8.45187 26.6201 7.34211C26.8927 6.23928 27.7888 5.35984 28.8994 5.10489C29.1494 5.04284 29.3998 5.01494 29.6496 5.01538Z" fill="url(#paint5_linear_223_105)"/>
<path d="M26.4592 5.43359L25.4796 4.45055C25.3443 4.31478 25.3447 4.09519 25.4805 3.95989C25.6162 3.82459 25.8358 3.82498 25.9711 3.96075L26.9507 4.94379C27.086 5.07956 27.0856 5.29915 26.9499 5.43445C26.8141 5.56977 26.5945 5.56938 26.4592 5.43359Z" fill="#FEA832"/>
<path d="M25.4797 8.47772L24.0686 8.47525C23.8768 8.47492 23.7219 8.31945 23.7222 8.12766C23.7225 7.93587 23.878 7.78095 24.0698 7.78128L25.4809 7.78375C25.6727 7.78409 25.8276 7.93956 25.8272 8.13135C25.8269 8.32314 25.6714 8.47806 25.4797 8.47772Z" fill="#FEA832"/>
<path d="M35.2183 8.49505L33.8072 8.49258C33.6154 8.49224 33.4605 8.33678 33.4608 8.14499C33.4612 7.9532 33.6167 7.79827 33.8084 7.79861L35.2195 7.80108C35.4113 7.80141 35.5662 7.95688 35.5659 8.14867C35.5656 8.34046 35.4101 8.49539 35.2183 8.49505Z" fill="#FE9923"/>
<path d="M32.3477 5.44401C32.2124 5.30824 32.2128 5.08865 32.3486 4.95335L33.3316 3.97375C33.4674 3.83845 33.687 3.83884 33.8223 3.97461C33.9576 4.11038 33.9572 4.32997 33.8214 4.46527L32.8384 5.44487C32.7026 5.58019 32.483 5.5798 32.3477 5.44401Z" fill="#FE9923"/>
<path d="M29.9866 2.56791L29.9841 3.99519C29.9837 4.19171 29.8371 4.3459 29.6508 4.34557C29.4644 4.34525 29.3183 4.19054 29.3187 3.99402L29.3212 2.56674C29.3215 2.37018 29.4682 2.21603 29.6545 2.21636C29.8408 2.21668 29.9869 2.37134 29.9866 2.56791Z" fill="#FEA832"/>
<path d="M29.9865 2.56807L29.984 3.99535C29.9836 4.19187 29.837 4.34607 29.6507 4.34574L29.6544 2.21652C29.8407 2.21685 29.9868 2.37151 29.9865 2.56807Z" fill="#FE9923"/>
<path d="M36.8305 54.7648C36.3661 54.7648 35.9207 54.5803 35.5923 54.2519C35.2639 53.9235 35.0795 53.4782 35.0795 53.0138C35.0795 52.5494 35.2639 52.104 35.5923 51.7756C35.9207 51.4473 36.3661 51.2628 36.8305 51.2628C38.2232 51.2612 39.5584 50.7073 40.5432 49.7225C41.528 48.7377 42.0819 47.4025 42.0834 46.0098C42.0834 45.5454 42.2679 45.1001 42.5963 44.7717C42.9246 44.4433 43.37 44.2588 43.8344 44.2588C44.2988 44.2588 44.7442 44.4433 45.0725 44.7717C45.4009 45.1001 45.5854 45.5454 45.5854 46.0098C45.5828 48.331 44.6596 50.5563 43.0182 52.1976C41.3769 53.8389 39.1516 54.7622 36.8305 54.7648Z" fill="#3C3C46"/>
<path d="M40.5659 19.0448L38.3481 25.6985L39.8267 30.8737C40.9174 30.0395 41.9315 21.7758 40.5659 19.0448Z" fill="#FF749C"/>
<path d="M26.7308 43.5617C25.4283 43.5592 24.1505 43.9179 23.0395 44.5977C21.9285 45.2776 21.0276 46.2521 20.437 47.4131C19.8463 48.574 19.589 49.876 19.6937 51.1743C19.7983 52.4727 20.2607 53.7166 21.0296 54.768H20.0195C19.7898 54.768 19.5623 54.8133 19.35 54.9012C19.1377 54.9891 18.9449 55.118 18.7824 55.2804C18.62 55.4429 18.4911 55.6358 18.4032 55.848C18.3153 56.0603 18.27 56.2878 18.2701 56.5175C18.27 56.7475 18.3154 56.9753 18.4035 57.1877C18.4916 57.4002 18.6208 57.5932 18.7835 57.7557C18.9463 57.9182 19.1395 58.047 19.3521 58.1347C19.5648 58.2224 19.7926 58.2674 20.0226 58.267L25.5837 58.2574C27.918 58.2529 30.1551 57.3224 31.804 55.6703C33.453 54.0181 34.3791 51.7793 34.3791 49.445L26.7308 43.5617Z" fill="#282834"/>
<path d="M32.2219 43.5617C33.5245 43.5592 34.8022 43.9179 35.9133 44.5977C37.0243 45.2776 37.9252 46.2521 38.5158 47.4131C39.1064 48.574 39.3637 49.876 39.2591 51.1743C39.1545 52.4727 38.692 53.7166 37.9231 54.768H38.9332C39.1629 54.768 39.3904 54.8133 39.6027 54.9012C39.815 54.9891 40.0078 55.118 40.1703 55.2804C40.3328 55.4429 40.4616 55.6357 40.5496 55.848C40.6375 56.0603 40.6827 56.2878 40.6827 56.5175C40.6827 56.7475 40.6374 56.9753 40.5492 57.1877C40.4611 57.4002 40.332 57.5932 40.1692 57.7557C40.0064 57.9182 39.8132 58.047 39.6006 58.1347C39.388 58.2224 39.1602 58.2674 38.9302 58.267L33.369 58.2574C31.0348 58.2529 28.7977 57.3224 27.1487 55.6703C25.4997 54.0181 24.5736 51.7793 24.5736 49.445L32.2219 43.5617Z" fill="#282834"/>
<path d="M37.1807 50.439C37.1807 56.4459 33.7314 57.9167 29.4764 57.9167C25.2214 57.9167 21.772 56.4459 21.772 50.439C21.772 44.432 25.2214 37.6053 29.4764 37.6053C33.7314 37.6053 37.1807 44.4319 37.1807 50.439Z" fill="#3C3C46"/>
<path d="M34.7293 54.3067C34.7293 57.2067 32.3775 57.9166 29.4764 57.9166C26.5752 57.9166 24.2234 57.2067 24.2234 54.3067C24.2234 51.4067 26.5752 48.1111 29.4764 48.1111C32.3775 48.1111 34.7293 51.4068 34.7293 54.3067Z" fill="#282834"/>
<path d="M29.4764 43.5586C31.5522 43.5586 33.3706 42.4301 34.9336 41.7866C33.5387 39.3201 31.6088 37.6053 29.4764 37.6053C27.344 37.6053 25.4141 39.3201 24.0192 41.7866C25.5822 42.4301 27.4006 43.5586 29.4764 43.5586Z" fill="#282834"/>
<path d="M25.7993 47.7609V55.334C25.7993 55.5778 25.7025 55.8116 25.5301 55.984C25.3577 56.1564 25.1238 56.2532 24.88 56.2532C24.4273 56.2532 23.993 56.4331 23.6729 56.7533C23.3527 57.0734 23.1728 57.5077 23.1728 57.9604C23.1728 58.4132 23.3527 58.8475 23.6729 59.1676C23.993 59.4878 24.4273 59.6677 24.88 59.6677H27.3752C27.9325 59.6677 28.4669 59.4463 28.861 59.0522C29.255 58.6582 29.4764 58.1237 29.4764 57.5665V47.7609" fill="#3C3C46"/>
<path d="M33.1534 47.7609V55.334C33.1534 55.5778 33.2503 55.8116 33.4227 55.984C33.5951 56.1564 33.8289 56.2532 34.0727 56.2532C34.2969 56.2532 34.5189 56.2974 34.726 56.3832C34.9331 56.469 35.1213 56.5947 35.2799 56.7533C35.4384 56.9118 35.5642 57.1 35.65 57.3071C35.7357 57.5142 35.7799 57.7362 35.7799 57.9604C35.7799 58.1846 35.7357 58.4066 35.65 58.6138C35.5642 58.8209 35.4384 59.0091 35.2799 59.1676C35.1213 59.3262 34.9331 59.4519 34.726 59.5377C34.5189 59.6235 34.2969 59.6677 34.0727 59.6677H31.5775C31.0203 59.6677 30.4858 59.4463 30.0918 59.0522C29.6977 58.6582 29.4763 58.1237 29.4763 57.5665V47.7609" fill="#3C3C46"/>
<path d="M18.3868 19.0448L20.6046 25.6985L19.126 30.8737C18.0353 30.0395 17.0212 21.7758 18.3868 19.0448Z" fill="#FF749C"/>
<path d="M38.348 25.6985L40.5659 19.0448C39.0622 19.0541 36.7604 20.8728 35.15 22.8221C33.3952 21.9188 31.45 21.4475 29.4763 21.4475C27.5026 21.4475 25.5575 21.9188 23.8026 22.8221C22.1922 20.8728 19.8904 19.0541 18.3868 19.0448L20.6046 25.6985C19.126 27.9165 17.6474 32.559 16.1688 34.4535C16.1688 34.4535 20.6046 42.1578 29.4763 42.1578C38.348 42.1578 42.7838 34.4535 42.7838 34.4535C41.3052 32.559 39.8266 27.9165 38.348 25.6985Z" fill="#3C3C46"/>
<path d="M23.8027 23.959C25.5823 23.141 27.5178 22.7174 29.4764 22.7174C31.435 22.7174 33.3705 23.141 35.1501 23.959C36.5845 22.3908 38.5639 20.9239 40.0428 20.6144L40.566 19.0448C39.0623 19.0541 36.7605 20.8728 35.1501 22.8221C33.3952 21.9188 31.4501 21.4475 29.4764 21.4475C27.5027 21.4475 25.5575 21.9188 23.8027 22.8221C22.1923 20.8728 19.8905 19.0541 18.3868 19.0448L18.91 20.6144C20.3889 20.9239 22.3683 22.3908 23.8027 23.959Z" fill="#4B505A"/>
<path d="M29.4764 40.4068C29.3835 40.4068 29.2944 40.3699 29.2288 40.3042C29.1631 40.2386 29.1262 40.1495 29.1262 40.0566V38.6558C29.1262 38.563 29.1631 38.4739 29.2288 38.4082C29.2944 38.3425 29.3835 38.3056 29.4764 38.3056C29.5693 38.3056 29.6583 38.3425 29.724 38.4082C29.7897 38.4739 29.8266 38.563 29.8266 38.6558V40.0566C29.8266 40.1495 29.7897 40.2386 29.724 40.3042C29.6583 40.3699 29.5693 40.4068 29.4764 40.4068Z" fill="#282834"/>
<path d="M29.1262 48.1113L29.4764 57.9168L29.8266 48.1113H29.1262Z" fill="#282834"/>
<path d="M28.0756 37.2567C28.0756 38.0303 29.4764 38.6575 29.4764 38.6575C29.4764 38.6575 30.8771 38.0303 30.8771 37.2567C30.8771 36.4831 30.25 36.5563 29.4764 36.5563C28.7027 36.5563 28.0756 36.483 28.0756 37.2567Z" fill="#FF749C"/>
<path d="M23.6384 37.8921C21.0182 37.8921 18.8864 35.7603 18.8864 33.14C19.1474 26.8357 28.1304 26.8376 28.3905 33.1401C28.3905 35.7603 26.2587 37.8921 23.6384 37.8921ZM23.6384 29.223C21.4786 29.223 19.7215 30.9802 19.7215 33.14C19.9366 38.3365 27.341 38.3349 27.5554 33.14C27.5554 30.9802 25.7982 29.223 23.6384 29.223Z" fill="#939393"/>
<path d="M35.3755 37.8921C32.7552 37.8921 30.6234 35.7603 30.6234 33.14C30.8844 26.8358 39.8674 26.8376 40.1275 33.1401C40.1275 35.7603 37.9957 37.8921 35.3755 37.8921ZM35.3755 29.223C33.2156 29.223 31.4585 30.9802 31.4585 33.14C31.6736 38.3364 39.0781 38.3349 39.2924 33.14C39.2924 30.9802 37.5353 29.223 35.3755 29.223Z" fill="#939393"/>
<path d="M27.5909 31.7765C27.307 31.7813 27.094 31.4784 27.1999 31.2125C28.0112 29.085 31.0045 29.0784 31.8139 31.2124C31.8948 31.4282 31.7853 31.6689 31.5694 31.7498C31.3534 31.8308 31.1128 31.7213 31.0318 31.5053C30.7879 30.8543 30.163 30.4271 29.4739 30.44C28.815 30.4533 28.2154 30.8814 27.982 31.5051C27.9192 31.6729 27.7601 31.7765 27.5909 31.7765Z" fill="#939393"/>
<path d="M40.4001 31.7758H39.3281C39.0974 31.7758 38.9105 31.5889 38.9105 31.3583C38.9105 31.1277 39.0974 30.9407 39.3281 30.9407H40.4001C40.9525 30.9597 40.9529 31.7567 40.4001 31.7758Z" fill="#939393"/>
<path d="M19.6859 31.7758H18.6139C18.3832 31.7758 18.1963 31.5889 18.1963 31.3583C18.1963 31.1277 18.3832 30.9407 18.6139 30.9407H19.6859C20.2383 30.9597 20.2387 31.7567 19.6859 31.7758Z" fill="#939393"/>
<path d="M36.4667 19.0582H37.0086V21.5391H36.4667V19.0582Z" fill="#1B81A5"/>
<path d="M34.131 18.9873H24.7424L23.9232 23.6464C23.8932 23.817 24.0099 23.9782 24.1811 24.0036C24.8946 24.109 26.7733 24.4837 29.3004 25.7257C29.3864 25.7679 29.487 25.7679 29.573 25.7257C32.1001 24.4837 33.9788 24.109 34.6922 24.0036C34.8635 23.9782 34.9802 23.817 34.9502 23.6464L34.131 18.9873Z" fill="#33393A"/>
<path d="M34.9502 23.6464L34.131 18.9873H32.0016L32.9529 24.3971C33.7567 24.1637 34.355 24.0534 34.6922 24.0036C34.8635 23.9782 34.9802 23.817 34.9502 23.6464Z" fill="#2A2F33"/>
<path d="M29.3915 15.1135L20.5363 18.6246C20.4329 18.6656 20.4329 18.8119 20.5363 18.8528L29.3915 22.3639C29.4205 22.3754 29.4528 22.3754 29.4819 22.3639L38.337 18.8528C38.4404 18.8119 38.4404 18.6657 38.337 18.6247L29.4819 15.1135C29.4528 15.102 29.4205 15.102 29.3915 15.1135Z" fill="#464C50"/>
<path d="M38.3372 18.6245L35.7709 17.6071L28.005 20.6864C27.8714 20.7393 27.7225 20.7393 27.5889 20.6864L21.4626 18.2573L20.5363 18.6245C20.4329 18.6655 20.4329 18.8118 20.5363 18.8528L26.5827 21.2503L29.3915 22.3639C29.4205 22.3754 29.4528 22.3754 29.4819 22.3639L38.337 18.8528C38.4404 18.8118 38.4404 18.6655 38.3372 18.6245Z" fill="#2A2F33"/>
<path d="M36.1917 21.4346V22.2034L35.9123 24.8843C35.9032 24.9698 35.9704 25.0441 36.0563 25.0441H37.4191C37.5051 25.0441 37.5719 24.9698 37.563 24.8843L37.2836 22.2034V21.4346C37.2836 21.3095 37.1822 21.2082 37.0573 21.2082H36.4181C36.2931 21.2082 36.1917 21.3096 36.1917 21.4346Z" fill="#FCB038"/>
<path d="M36.1917 21.4346V22.2034H37.2836V21.4346C37.2836 21.3095 37.1822 21.2082 37.0573 21.2082H36.4181C36.2931 21.2082 36.1917 21.3096 36.1917 21.4346Z" fill="#F3E8D7"/>
<circle cx="24.3547" cy="33.0086" r="2.32006" fill="#FFDE1E"/>
<ellipse cx="24.6174" cy="32.9649" rx="1.61966" ry="1.66344" fill="#282834"/>
<circle cx="2.32006" cy="2.32006" r="2.32006" transform="matrix(-1 0 0 1 37.0056 30.6885)" fill="#FFDE1E"/>
<ellipse cx="1.61966" cy="1.66344" rx="1.61966" ry="1.66344" transform="matrix(-1 0 0 1 36.0425 31.3014)" fill="#282834"/>
<defs>
<linearGradient id="paint0_linear_223_105" x1="30" y1="11.0527" x2="30" y2="54.4321" gradientUnits="userSpaceOnUse">
<stop stop-color="#FBDD75"/>
<stop offset="1" stop-color="#FFBB0D"/>
</linearGradient>
<linearGradient id="paint1_linear_223_105" x1="57.3882" y1="33.052" x2="50.4374" y2="32.8585" gradientUnits="userSpaceOnUse">
<stop stop-color="#8A7DB5"/>
<stop offset="1" stop-color="#674CBD"/>
</linearGradient>
<linearGradient id="paint2_linear_223_105" x1="49.8663" y1="11.9363" x2="44.6481" y2="18.5256" gradientUnits="userSpaceOnUse">
<stop stop-color="#F5A89C"/>
<stop offset="1" stop-color="#F98D7C"/>
</linearGradient>
<linearGradient id="paint3_linear_223_105" x1="2.28355" y1="33.7407" x2="9.45206" y2="33.8446" gradientUnits="userSpaceOnUse">
<stop stop-color="#F5A89C"/>
<stop offset="1" stop-color="#F98D7C"/>
</linearGradient>
<linearGradient id="paint4_linear_223_105" x1="8.64111" y1="12.1492" x2="14.9894" y2="19.2929" gradientUnits="userSpaceOnUse">
<stop stop-color="#8A7DB5"/>
<stop offset="1" stop-color="#674CBD"/>
</linearGradient>
<linearGradient id="paint5_linear_223_105" x1="29.6504" y1="5.01538" x2="29.637" y2="12.6726" gradientUnits="userSpaceOnUse">
<stop stop-color="#FBDD75"/>
<stop offset="1" stop-color="#FFBB0D"/>
</linearGradient>
</defs>
</svg>
