<svg width="151" height="151" viewBox="0 0 151 151" fill="none" xmlns="http://www.w3.org/2000/svg">
<path fill-rule="evenodd" clip-rule="evenodd" d="M49.0241 0C50.5358 -2.1753e-07 51.7612 1.22547 51.7612 2.73716L51.7612 47.7148H97.3342V2.73716C97.3342 1.22547 98.5597 0 100.071 0C101.583 0 102.809 1.22547 102.809 2.73716V47.7148H148.263C149.775 47.7148 151 48.9403 151 50.452C151 51.9637 149.775 53.1891 148.263 53.1891H102.809L102.809 93.7645H148.263C149.775 93.7645 151 94.9899 151 96.5016C151 98.0133 149.775 99.2388 148.263 99.2388H102.809V148.263C102.809 149.775 101.583 151 100.071 151C98.5597 151 97.3342 149.775 97.3342 148.263V99.2388H51.7612L51.7612 148.263C51.7612 149.775 50.5358 151 49.0241 151C47.5124 151 46.2869 149.775 46.2869 148.263V99.2388H2.73716C1.22547 99.2388 0 98.0133 0 96.5016C0 94.9899 1.22547 93.7645 2.73716 93.7645H46.2869V53.1891H2.73716C1.22547 53.1891 0 51.9637 0 50.452C0 48.9403 1.22547 47.7148 2.73716 47.7148H46.2869L46.2869 2.73716C46.2869 1.22547 47.5124 2.1753e-07 49.0241 0ZM51.7612 53.1891V93.7645H97.3342L97.3342 53.1891H51.7612Z" fill="#443B6B"/>
<path d="M129.697 87.5657C129.458 87.5657 129.243 87.482 129.051 87.3146C128.884 87.1472 128.8 86.932 128.8 86.6689V68.8404L123.635 72.8222C123.419 72.9896 123.192 73.0494 122.953 73.0016C122.738 72.9537 122.547 72.8222 122.379 72.607L120.585 70.2753C120.442 70.0601 120.382 69.8329 120.406 69.5937C120.454 69.3546 120.585 69.1632 120.801 69.0198L128.98 62.7062C129.123 62.6106 129.255 62.5508 129.374 62.5269C129.518 62.4791 129.673 62.4551 129.841 62.4551H133.643C133.882 62.4551 134.085 62.5388 134.253 62.7062C134.42 62.8736 134.504 63.0889 134.504 63.3519V86.6689C134.504 86.932 134.42 87.1472 134.253 87.3146C134.085 87.482 133.882 87.5657 133.643 87.5657H129.697Z" fill="white" fill-opacity="0.9"/>
<path d="M14.2308 38.3135C13.9677 38.3135 13.7525 38.2298 13.5851 38.0624C13.4177 37.895 13.334 37.6798 13.334 37.4167V35.2644C13.334 35.0731 13.3818 34.822 13.4775 34.5111C13.597 34.1763 13.8482 33.8534 14.2308 33.5425L18.9659 28.8433C20.7117 27.504 22.1227 26.3681 23.1988 25.4354C24.2989 24.5027 25.112 23.6538 25.6382 22.8885C26.1643 22.1232 26.4273 21.3819 26.4273 20.6644C26.4273 19.7317 26.1643 18.9665 25.6382 18.3686C25.1359 17.7468 24.3109 17.4359 23.163 17.4359C22.3977 17.4359 21.752 17.6033 21.2259 17.9381C20.7237 18.249 20.3291 18.6675 20.0421 19.1936C19.7551 19.7198 19.5638 20.2937 19.4681 20.9155C19.3964 21.2264 19.2409 21.4416 19.0018 21.5612C18.7866 21.6808 18.5594 21.7406 18.3202 21.7406H14.5178C14.2786 21.7406 14.0873 21.6688 13.9438 21.5253C13.8003 21.3579 13.7286 21.1786 13.7286 20.9873C13.7525 19.8872 13.9797 18.8469 14.4102 17.8664C14.8645 16.8859 15.4983 16.013 16.3114 15.2477C17.1245 14.4824 18.105 13.8846 19.2529 13.4541C20.4008 12.9997 21.7042 12.7725 23.163 12.7725C25.1718 12.7725 26.8578 13.1073 28.221 13.7769C29.5841 14.4226 30.6124 15.3194 31.306 16.4674C31.9995 17.6153 32.3463 18.9425 32.3463 20.4492C32.3463 21.5971 32.1071 22.6613 31.6288 23.6418C31.1744 24.6223 30.5048 25.5669 29.62 26.4757C28.7351 27.3606 27.6829 28.2813 26.4632 29.2379L22.2303 33.4708H31.9875C32.2506 33.4708 32.4658 33.5545 32.6332 33.7219C32.8006 33.8893 32.8843 34.1045 32.8843 34.3676V37.4167C32.8843 37.6798 32.8006 37.895 32.6332 38.0624C32.4658 38.2298 32.2506 38.3135 31.9875 38.3135H14.2308Z" fill="white" fill-opacity="0.9"/>
<path d="M22.9254 87.9609C21.1557 87.9609 19.6371 87.7457 18.3696 87.3152C17.1021 86.8848 16.0618 86.3347 15.2487 85.6651C14.4356 84.9955 13.8258 84.2661 13.4193 83.4769C13.0127 82.6638 12.7975 81.8866 12.7736 81.1452C12.7736 80.93 12.8453 80.7506 12.9888 80.6071C13.1323 80.4636 13.3116 80.3919 13.5269 80.3919H17.4728C17.7359 80.3919 17.9511 80.4517 18.1185 80.5712C18.2859 80.6669 18.4414 80.8463 18.5849 81.1093C18.7762 81.6594 19.0871 82.1018 19.5175 82.4366C19.948 82.7714 20.4502 83.0106 21.0242 83.154C21.622 83.2736 22.2558 83.3334 22.9254 83.3334C24.2646 83.3334 25.3169 83.0225 26.0822 82.4007C26.8474 81.7789 27.2301 80.906 27.2301 79.7821C27.2301 78.6341 26.8713 77.8091 26.1539 77.3069C25.4365 76.8047 24.4201 76.5536 23.1048 76.5536H19.2664C19.0273 76.5536 18.824 76.4698 18.6566 76.3024C18.4892 76.135 18.4055 75.9318 18.4055 75.6926V73.9349C18.4055 73.6479 18.4533 73.4088 18.549 73.2174C18.6686 73.0261 18.7881 72.8826 18.9077 72.787L25.0777 67.1192H14.9618C14.6987 67.1192 14.4835 67.0355 14.3161 66.8681C14.1487 66.7006 14.065 66.4974 14.065 66.2582V63.3884C14.065 63.1254 14.1487 62.9101 14.3161 62.7427C14.4835 62.5753 14.6987 62.4916 14.9618 62.4916H30.889C31.1521 62.4916 31.3673 62.5753 31.5347 62.7427C31.7021 62.9101 31.7858 63.1254 31.7858 63.3884V65.9712C31.7858 66.2343 31.738 66.4615 31.6423 66.6528C31.5467 66.8202 31.4271 66.9518 31.2836 67.0474L25.4365 72.8228L25.7952 72.8587C27.2062 73.0022 28.4617 73.349 29.5618 73.899C30.6618 74.449 31.5228 75.2382 32.1446 76.2666C32.7903 77.271 33.1131 78.5504 33.1131 80.1049C33.1131 81.7311 32.6707 83.1301 31.7858 84.302C30.901 85.4738 29.6933 86.3825 28.1627 87.0282C26.6322 87.65 24.8864 87.9609 22.9254 87.9609Z" fill="white" fill-opacity="0.9"/>
<path d="M77.2997 136.82C77.0605 136.82 76.8573 136.737 76.6899 136.569C76.5225 136.402 76.4388 136.186 76.4388 135.923V131.619H65.139C64.8999 131.619 64.6966 131.535 64.5292 131.368C64.3618 131.2 64.2781 130.985 64.2781 130.722V127.816C64.2781 127.649 64.3139 127.47 64.3857 127.278C64.4574 127.087 64.5531 126.908 64.6727 126.74L75.1832 112.319C75.4941 111.913 75.9366 111.71 76.5105 111.71H81.0663C81.3054 111.71 81.5087 111.793 81.6761 111.961C81.8435 112.128 81.9272 112.343 81.9272 112.606V126.848H85.1198C85.4068 126.848 85.6221 126.931 85.7655 127.099C85.9329 127.266 86.0166 127.47 86.0166 127.709V130.722C86.0166 130.985 85.9329 131.2 85.7655 131.368C85.5981 131.535 85.3949 131.619 85.1557 131.619H81.9272V135.923C81.9272 136.186 81.8435 136.402 81.6761 136.569C81.5087 136.737 81.3054 136.82 81.0663 136.82H77.2997ZM69.8383 127.027H76.5464V117.593L69.8383 127.027Z" fill="white" fill-opacity="0.9"/>
<path d="M126.974 38.2777C124.822 38.2777 123.016 37.9309 121.558 37.2374C120.099 36.5439 118.987 35.6351 118.222 34.5111C117.48 33.3871 117.086 32.1914 117.038 30.9239C117.038 30.7086 117.109 30.5293 117.253 30.3858C117.396 30.2423 117.576 30.1706 117.791 30.1706H121.845C122.132 30.1706 122.359 30.2423 122.526 30.3858C122.717 30.5054 122.861 30.6728 122.957 30.888C123.196 31.5337 123.507 32.0598 123.889 32.4664C124.296 32.8729 124.762 33.1719 125.288 33.3632C125.814 33.5545 126.376 33.6502 126.974 33.6502C127.74 33.6502 128.445 33.4947 129.091 33.1838C129.736 32.849 130.251 32.3707 130.633 31.7489C131.016 31.1271 131.207 30.3619 131.207 29.4531C131.207 28.6639 131.028 27.9704 130.669 27.3725C130.31 26.7746 129.808 26.3083 129.163 25.9735C128.517 25.6387 127.787 25.4713 126.974 25.4713C126.353 25.4713 125.838 25.543 125.432 25.6865C125.049 25.83 124.726 26.0094 124.463 26.2246C124.2 26.4159 123.961 26.5953 123.746 26.7627C123.531 26.9062 123.291 26.9779 123.028 26.9779H119.047C118.831 26.9779 118.64 26.9062 118.473 26.7627C118.329 26.5953 118.257 26.404 118.257 26.1887L119.513 13.8128C119.561 13.478 119.68 13.2269 119.872 13.0595C120.087 12.8682 120.338 12.7725 120.625 12.7725H134.543C134.806 12.7725 135.022 12.8562 135.189 13.0236C135.356 13.191 135.44 13.4063 135.44 13.6693V16.5391C135.44 16.7783 135.356 16.9815 135.189 17.1489C135.022 17.3163 134.806 17.4 134.543 17.4H124.176L123.638 22.6733C124.117 22.3624 124.702 22.0873 125.396 21.8482C126.113 21.5851 127.106 21.4536 128.373 21.4536C129.521 21.4536 130.609 21.6449 131.638 22.0276C132.69 22.3863 133.623 22.9244 134.436 23.6418C135.249 24.3593 135.883 25.2202 136.337 26.2246C136.815 27.2051 137.054 28.3291 137.054 29.5966C137.054 31.3185 136.648 32.8371 135.835 34.1524C135.022 35.4438 133.862 36.4601 132.355 37.2015C130.849 37.919 129.055 38.2777 126.974 38.2777Z" fill="white" fill-opacity="0.99"/>
<path d="M23.1048 137.607C21.0003 137.607 19.1708 137.224 17.6163 136.459C16.0858 135.694 14.89 134.642 14.0291 133.302C13.1921 131.939 12.7736 130.409 12.7736 128.711C12.7736 127.993 12.8812 127.276 13.0964 126.558C13.3116 125.841 13.5747 125.171 13.8856 124.549C14.1965 123.904 14.5074 123.33 14.8183 122.828C15.1531 122.325 15.4281 121.919 15.6433 121.608L22.1003 112.855C22.2199 112.736 22.3754 112.592 22.5667 112.425C22.758 112.233 23.0211 112.138 23.3559 112.138H27.3736C27.5888 112.138 27.7681 112.221 27.9116 112.389C28.0551 112.532 28.1269 112.712 28.1269 112.927C28.1269 113.023 28.1149 113.118 28.091 113.214C28.0671 113.286 28.0312 113.345 27.9834 113.393L23.033 120.173C23.2243 120.125 23.4396 120.089 23.6787 120.065C23.9418 120.042 24.169 120.03 24.3603 120.03C25.5082 120.077 26.6083 120.317 27.6605 120.747C28.7367 121.177 29.6933 121.775 30.5303 122.541C31.3673 123.282 32.025 124.167 32.5033 125.195C33.0055 126.224 33.2566 127.371 33.2566 128.639C33.2566 130.241 32.8381 131.724 32.0011 133.087C31.188 134.45 30.0161 135.55 28.4856 136.387C26.979 137.2 25.1853 137.607 23.1048 137.607ZM23.033 132.979C23.8222 132.979 24.5516 132.824 25.2212 132.513C25.8908 132.178 26.4289 131.688 26.8355 131.042C27.242 130.397 27.4453 129.619 27.4453 128.711C27.4453 127.778 27.242 127.001 26.8355 126.379C26.4289 125.733 25.8908 125.255 25.2212 124.944C24.5516 124.609 23.8222 124.442 23.033 124.442C22.2438 124.442 21.5144 124.609 20.8448 124.944C20.1752 125.255 19.6371 125.733 19.2306 126.379C18.824 127.001 18.6207 127.778 18.6207 128.711C18.6207 129.619 18.824 130.397 19.2306 131.042C19.661 131.688 20.1991 132.178 20.8448 132.513C21.5144 132.824 22.2438 132.979 23.033 132.979Z" fill="white" fill-opacity="0.9"/>
<path d="M70.0851 37.8831C69.8699 37.8831 69.6906 37.8113 69.5471 37.6679C69.4036 37.5004 69.3318 37.3091 69.3318 37.0939C69.3318 36.9982 69.3557 36.8906 69.4036 36.771L77.8694 17.5794H66.8566C66.6175 17.5794 66.4023 17.4957 66.2109 17.3283C66.0435 17.1609 65.9598 16.9576 65.9598 16.7185V13.6693C65.9598 13.4063 66.0435 13.191 66.2109 13.0236C66.4023 12.8562 66.6175 12.7725 66.8566 12.7725H83.1068C83.3937 12.7725 83.609 12.8562 83.7525 13.0236C83.9199 13.191 84.0036 13.4063 84.0036 13.6693V16.3597C84.0036 16.7185 83.9677 17.0174 83.896 17.2566C83.8481 17.4718 83.7644 17.699 83.6448 17.9381L75.2149 37.0222C75.1431 37.1656 75.0116 37.345 74.8203 37.5602C74.6529 37.7755 74.3779 37.8831 73.9952 37.8831H70.0851Z" fill="white" fill-opacity="0.9"/>
<path d="M127.261 137.574C125.587 137.574 124.105 137.383 122.813 137C121.546 136.594 120.481 136.044 119.621 135.35C118.76 134.633 118.114 133.808 117.683 132.875C117.253 131.918 117.038 130.878 117.038 129.754C117.038 128.391 117.373 127.207 118.042 126.203C118.712 125.198 119.561 124.421 120.589 123.871C119.752 123.321 119.094 122.627 118.616 121.79C118.162 120.93 117.935 119.937 117.935 118.813C117.935 117.45 118.281 116.242 118.975 115.19C119.668 114.138 120.697 113.301 122.06 112.679C123.447 112.057 125.181 111.746 127.261 111.746C129.318 111.746 131.028 112.057 132.391 112.679C133.754 113.277 134.783 114.102 135.476 115.154C136.17 116.206 136.516 117.414 136.516 118.777C136.516 119.901 136.289 120.894 135.835 121.755C135.38 122.616 134.735 123.321 133.898 123.871C134.998 124.397 135.871 125.174 136.516 126.203C137.162 127.231 137.485 128.427 137.485 129.79C137.485 131.273 137.102 132.6 136.337 133.772C135.572 134.944 134.424 135.876 132.893 136.57C131.363 137.239 129.485 137.574 127.261 137.574ZM127.261 133.449C128.098 133.449 128.864 133.305 129.557 133.018C130.251 132.708 130.789 132.277 131.171 131.727C131.578 131.177 131.781 130.531 131.781 129.79C131.781 129.025 131.578 128.379 131.171 127.853C130.789 127.303 130.251 126.884 129.557 126.597C128.864 126.286 128.098 126.131 127.261 126.131C126.4 126.131 125.623 126.286 124.93 126.597C124.26 126.884 123.722 127.303 123.315 127.853C122.909 128.379 122.706 129.025 122.706 129.79C122.706 130.531 122.909 131.177 123.315 131.727C123.722 132.277 124.26 132.708 124.93 133.018C125.623 133.305 126.4 133.449 127.261 133.449ZM127.261 122.221C128.003 122.197 128.672 122.054 129.27 121.79C129.868 121.527 130.346 121.169 130.705 120.714C131.064 120.236 131.243 119.686 131.243 119.064C131.243 118.418 131.064 117.868 130.705 117.414C130.37 116.936 129.904 116.565 129.306 116.302C128.708 116.039 128.027 115.907 127.261 115.907C126.496 115.907 125.803 116.039 125.181 116.302C124.583 116.565 124.117 116.936 123.782 117.414C123.447 117.868 123.279 118.418 123.279 119.064C123.279 119.71 123.447 120.272 123.782 120.75C124.117 121.205 124.583 121.563 125.181 121.826C125.803 122.089 126.496 122.221 127.261 122.221Z" fill="white" fill-opacity="0.9"/>
<path d="M70.1475 87.5277C69.9322 87.5277 69.7529 87.4559 69.6094 87.3125C69.4659 87.1451 69.3942 86.9537 69.3942 86.7385C69.3942 86.6189 69.4061 86.5233 69.43 86.4515C69.4779 86.3798 69.5137 86.32 69.5376 86.2722L74.7391 79.1695C74.3086 79.2651 73.8782 79.301 73.4477 79.2771C72.2998 79.2292 71.2117 79.0021 70.1833 78.5955C69.155 78.165 68.2343 77.5791 67.4212 76.8378C66.6081 76.0964 65.9743 75.2235 65.52 74.2191C65.0656 73.2147 64.8384 72.1026 64.8384 70.883C64.8384 69.7829 65.0417 68.7067 65.4482 67.6545C65.8787 66.6022 66.5124 65.6576 67.3494 64.8206C68.1865 63.9836 69.2267 63.3139 70.4703 62.8117C71.7139 62.3095 73.1607 62.0584 74.8109 62.0584C76.461 62.0584 77.9078 62.2856 79.1514 62.74C80.4189 63.1944 81.4831 63.8281 82.344 64.6412C83.205 65.4304 83.8507 66.3511 84.2811 67.4034C84.7116 68.4317 84.9268 69.5318 84.9268 70.7036C84.9268 71.7559 84.7475 72.7364 84.3887 73.6451C84.03 74.5539 83.5876 75.4029 83.0615 76.1921C82.5353 76.9813 82.0092 77.7465 81.4831 78.4879L75.4566 86.8102C75.3609 86.9298 75.2174 87.0853 75.0261 87.2766C74.8348 87.444 74.5598 87.5277 74.201 87.5277H70.1475ZM74.8467 75.0442C75.6359 75.0442 76.3534 74.8768 76.9991 74.5419C77.6448 74.2071 78.147 73.7288 78.5057 73.1071C78.8883 72.4853 79.0797 71.7439 79.0797 70.883C79.0797 69.9981 78.8883 69.2448 78.5057 68.623C78.147 68.0012 77.6448 67.5229 76.9991 67.1881C76.3534 66.8533 75.6359 66.6859 74.8467 66.6859C74.0815 66.6859 73.376 66.8533 72.7303 67.1881C72.0846 67.5229 71.5704 68.0012 71.1878 68.623C70.829 69.2448 70.6497 69.9981 70.6497 70.883C70.6497 71.7439 70.829 72.4853 71.1878 73.1071C71.5704 73.7288 72.0846 74.2071 72.7303 74.5419C73.376 74.8768 74.0815 75.0442 74.8467 75.0442Z" fill="white" fill-opacity="0.9"/>
</svg>
