<svg width="197" height="175" viewBox="0 0 197 175" fill="none" xmlns="http://www.w3.org/2000/svg">
<path d="M37.1465 102.844C36.2071 106.71 31.4183 111.176 34.0932 119.508C36.7681 127.84 32.181 139.725 33.7617 147.628" stroke="#443B6B" stroke-width="2" stroke-linecap="round"/>
<path d="M78.7783 28.8636C98.9424 40.1893 106.269 65.4292 95.142 85.2386C84.1889 104.739 59.4371 111.708 39.4324 101.116L39.3349 104.029C39.3097 104.778 38.4997 105.235 37.846 104.867L34.711 103.106C34.0573 102.739 34.0253 101.81 34.652 101.399L37.1073 99.7874C17.9943 88.1045 11.2533 63.5752 22.122 44.2247C33.2484 24.4154 58.6143 17.538 78.7783 28.8636Z" fill="url(#paint0_linear_226_3736)"/>
<path d="M38.5771 34.9507C44.7803 31.5663 54.5547 28.6959 60.7619 30.0923C66.9691 31.4886 50.0453 35.1209 40.306 41.6153C30.5667 48.1097 22.8229 67.3307 23.539 58.4779C24.2551 49.625 32.374 38.3351 38.5771 34.9507Z" fill="white" fill-opacity="0.5"/>
<path d="M27.7305 68.875C27.3163 67.4478 25.7705 64.7878 23.7226 65.7279C21.6746 66.668 21.8579 67.9654 21.8099 69.1331C21.762 70.3008 22.9253 73.6418 25.4354 72.9612C27.9454 72.2806 28.1448 70.3022 27.7305 68.875Z" fill="white" fill-opacity="0.5"/>
<path d="M95.7792 128.362C96.7185 132.228 101.507 136.694 98.8324 145.026C96.1575 153.358 100.745 165.243 99.164 173.146" stroke="#443B6B" stroke-width="2" stroke-linecap="round"/>
<path d="M99.4244 61.1893C117.572 61.1896 132.283 79.608 132.283 102.328C132.283 124.694 118.027 142.891 100.27 143.453L101.357 146.124C101.625 146.781 101.141 147.501 100.431 147.501H98.0006C97.2908 147.501 96.8073 146.781 97.0748 146.124L98.1686 143.433C80.603 142.607 66.5651 124.522 66.5651 102.328C66.5651 79.6078 81.2769 61.1893 99.4244 61.1893Z" fill="url(#paint1_linear_226_3736)"/>
<path d="M74.2595 86.1852C77.2029 80.1966 82.787 72.9073 87.5703 71.0849C92.3536 69.2626 82.171 80.7174 78.0034 91.1493C73.8358 101.581 75.9241 122.132 73.012 114.063C70.1 105.993 71.3162 92.1737 74.2595 86.1852Z" fill="white" fill-opacity="0.5"/>
<path d="M79.875 121.075C79.0432 120.033 76.9634 118.471 75.9236 120.294C74.8838 122.116 75.5077 123.158 75.9236 124.199C76.3395 125.241 78.4193 127.584 79.875 125.762C81.3308 123.939 80.7069 122.116 79.875 121.075Z" fill="white" fill-opacity="0.5"/>
<path d="M160.351 109.355C161.291 113.221 166.079 117.687 163.404 126.019C160.73 134.351 165.317 146.236 163.736 154.139" stroke="#443B6B" stroke-width="2" stroke-linecap="round"/>
<path d="M113.438 19.0285C133.582 8.51935 159.96 19.2596 172.354 43.0171C184.555 66.4038 178.658 93.6869 159.256 104.558L162.112 106.878C162.669 107.331 162.581 108.208 161.944 108.54L158.643 110.262C158.006 110.595 157.236 110.166 157.184 109.449L156.913 105.758C136.964 115.066 111.515 104.281 99.4074 81.0742C87.0128 57.3166 93.2946 29.5376 113.438 19.0285Z" fill="url(#paint2_linear_226_3736)" fill-opacity="0.803"/>
<path d="M99.1411 59.734C99.1413 51.7676 101.363 40.9116 105.678 36.2362C109.994 31.5607 104.94 49.4351 106.005 62.7567C107.07 76.0783 120.599 96.358 112.964 89.6066C105.33 82.8552 99.1409 67.7005 99.1411 59.734Z" fill="white" fill-opacity="0.5"/>
<path d="M124.408 92.9648C122.916 92.3575 119.755 91.9283 119.595 94.4363C119.436 96.9442 120.696 97.6719 121.726 98.5202C122.756 99.3684 126.343 100.614 126.964 97.8655C127.586 95.1166 125.899 93.5721 124.408 92.9648Z" fill="white" fill-opacity="0.5"/>
<defs>
<linearGradient id="paint0_linear_226_3736" x1="78.7783" y1="28.8636" x2="36.5101" y2="104.117" gradientUnits="userSpaceOnUse">
<stop stop-color="#F5A89C"/>
<stop offset="1" stop-color="#F98D7C"/>
</linearGradient>
<linearGradient id="paint1_linear_226_3736" x1="99.424" y1="61.1893" x2="99.424" y2="147.501" gradientUnits="userSpaceOnUse">
<stop stop-color="#FBDD75"/>
<stop offset="1" stop-color="#FFBB0D"/>
</linearGradient>
<linearGradient id="paint2_linear_226_3736" x1="113.438" y1="19.0285" x2="160.524" y2="109.281" gradientUnits="userSpaceOnUse">
<stop stop-color="#8A7DB5"/>
<stop offset="1" stop-color="#674CBD"/>
</linearGradient>
</defs>
</svg>
