<svg width="227" height="50" viewBox="0 0 227 50" fill="none" xmlns="http://www.w3.org/2000/svg">
<path d="M1.90799 49.2585C1.38977 49.2585 0.942216 49.0708 0.565329 48.6955C0.188443 48.3202 0 47.8746 0 47.3585V1.89997C0 1.38393 0.188443 0.938264 0.565329 0.562961C0.942216 0.187657 1.38977 0 1.90799 0H25.3692C32.0589 0 36.982 1.21974 40.1384 3.65921C43.3419 6.09867 44.9437 9.80478 44.9437 14.7775C44.9437 16.7948 44.3548 18.6009 43.177 20.196C41.9993 21.7441 40.7037 22.87 39.2904 23.5737C41.1748 24.3243 42.753 25.6613 44.025 27.5847C45.3441 29.4613 46.0037 31.5254 46.0037 33.7772C46.0037 38.9846 44.3077 42.8783 40.9157 45.4586C37.5237 47.9918 32.5771 49.2585 26.0758 49.2585H1.90799ZM23.6025 18.5071C24.5447 18.5071 25.2514 18.2022 25.7225 17.5923C26.2407 16.9355 26.4998 16.1849 26.4998 15.3405C26.4998 14.4961 26.2407 13.7455 25.7225 13.0887C25.2514 12.4319 24.5447 12.1035 23.6025 12.1035H17.6665V18.5071H23.6025ZM24.2385 37.155C25.322 37.155 26.1229 36.8031 26.6411 36.0994C27.2065 35.3957 27.4891 34.5982 27.4891 33.7069C27.4891 32.8155 27.1829 32.018 26.5705 31.3143C26.0052 30.6106 25.2278 30.2588 24.2385 30.2588H17.6665V37.155H24.2385Z" fill="white"/>
<path d="M53.8035 49.2585C53.2852 49.2585 52.8377 49.0708 52.4608 48.6955C52.0839 48.3202 51.8955 47.8746 51.8955 47.3585V1.89997C51.8955 1.38393 52.0839 0.938264 52.4608 0.562961C52.8377 0.187657 53.2852 0 53.8035 0H74.7206C81.5046 0 86.8046 1.52467 90.6205 4.574C94.4365 7.57643 96.3445 11.7517 96.3445 17.0997C96.3445 20.1491 95.6614 22.8465 94.2952 25.1922C92.929 27.4909 91.0681 29.3909 88.7125 30.8921L97.4045 46.9363C97.5458 47.2178 97.6165 47.4758 97.6165 47.7104C97.6165 48.1326 97.4516 48.5079 97.1218 48.8363C96.8392 49.1177 96.4858 49.2585 96.0618 49.2585H81.5753C80.7273 49.2585 80.0442 49.0708 79.5259 48.6955C79.0548 48.2733 78.7251 47.8276 78.5366 47.3585L72.4593 33.918H69.562V47.3585C69.562 47.8746 69.3736 48.3202 68.9967 48.6955C68.6198 49.0708 68.1722 49.2585 67.654 49.2585H53.8035ZM74.7206 20.5478C75.7571 20.5478 76.558 20.2194 77.1233 19.5627C77.6886 18.859 77.9713 17.9911 77.9713 16.959C77.9713 15.9269 77.6886 15.0356 77.1233 14.285C76.6051 13.4874 75.8042 13.0887 74.7206 13.0887H69.562V20.5478H74.7206Z" fill="white"/>
<path d="M100.562 49.2585C100.138 49.2585 99.7609 49.1177 99.4312 48.8363C99.1485 48.5079 99.0072 48.1326 99.0072 47.7104C99.0072 47.5227 99.0307 47.3585 99.0778 47.2178L114.836 2.32218C115.025 1.71232 115.378 1.17283 115.896 0.703697C116.415 0.234569 117.121 0 118.016 0H133.351C134.246 0 134.953 0.234569 135.471 0.703697C135.989 1.17283 136.342 1.71232 136.531 2.32218L152.289 47.2178C152.337 47.3585 152.36 47.5227 152.36 47.7104C152.36 48.1326 152.195 48.5079 151.865 48.8363C151.583 49.1177 151.229 49.2585 150.805 49.2585H137.732C136.319 49.2585 135.4 48.6721 134.976 47.4993L133.28 42.8549H118.087L116.391 47.4993C115.967 48.6721 115.048 49.2585 113.635 49.2585H100.562ZM129.676 29.1329L125.648 16.0442L121.691 29.1329H129.676Z" fill="white"/>
<path d="M158.146 49.2585C157.628 49.2585 157.181 49.0708 156.804 48.6955C156.427 48.3202 156.238 47.8746 156.238 47.3585V1.89997C156.238 1.38393 156.427 0.938264 156.804 0.562961C157.181 0.187657 157.628 0 158.146 0H172.562C173.081 0 173.528 0.187657 173.905 0.562961C174.282 0.938264 174.47 1.38393 174.47 1.89997V47.3585C174.47 47.8746 174.282 48.3202 173.905 48.6955C173.528 49.0708 173.081 49.2585 172.562 49.2585H158.146Z" fill="white"/>
<path d="M184.163 49.2585C183.645 49.2585 183.197 49.0708 182.821 48.6955C182.444 48.3202 182.255 47.8746 182.255 47.3585V1.89997C182.255 1.38393 182.444 0.938264 182.821 0.562961C183.197 0.187657 183.645 0 184.163 0H195.328C196.648 0 197.613 0.539499 198.226 1.61849L210.168 21.1108V1.89997C210.168 1.38393 210.357 0.938264 210.734 0.562961C211.111 0.187657 211.558 0 212.076 0H224.867C225.385 0 225.833 0.187657 226.21 0.562961C226.586 0.938264 226.775 1.38393 226.775 1.89997V47.3585C226.775 47.8746 226.586 48.3202 226.21 48.6955C225.833 49.0708 225.385 49.2585 224.867 49.2585H213.702C212.901 49.2585 212.288 49.0943 211.864 48.7659C211.44 48.4375 211.087 48.0622 210.804 47.64L198.862 29.6958V47.3585C198.862 47.8746 198.673 48.3202 198.296 48.6955C197.92 49.0708 197.472 49.2585 196.954 49.2585H184.163Z" fill="white"/>
</svg>
