<svg width="211" height="51" viewBox="0 0 211 51" fill="none" xmlns="http://www.w3.org/2000/svg">
<path d="M23.6976 50.48C16.4527 50.48 10.7737 48.8675 6.66056 45.6424C2.54737 42.4172 0.350556 37.6029 0.070111 31.1995C0.0233703 29.9375 0 27.8575 0 24.9596C0 22.0149 0.0233703 19.8882 0.070111 18.5795C0.303815 12.5032 2.524 7.89919 6.73067 4.76756C10.9373 1.58919 16.593 0 23.6976 0C28.4651 0 32.6718 0.701112 36.3176 2.10334C39.9634 3.50556 42.7678 5.39856 44.7309 7.78234C46.694 10.1661 47.7223 12.7836 47.8158 15.6348C47.8158 16.0555 47.6522 16.4294 47.325 16.7566C47.0446 17.037 46.694 17.1772 46.2734 17.1772H30.7788C29.844 17.1772 29.1662 16.9202 28.7456 16.406C28.6988 16.3125 28.4885 16.0321 28.1146 15.5647C27.7406 15.0505 27.1564 14.6065 26.3618 14.2326C25.6139 13.8586 24.7259 13.6717 23.6976 13.6717C20.2388 13.6717 18.4392 15.4245 18.299 18.93C18.2523 20.192 18.2289 22.1551 18.2289 24.8193C18.2289 27.4836 18.2523 29.4934 18.299 30.8489C18.4392 34.8219 20.3322 36.8084 23.978 36.8084C25.8476 36.8084 27.2966 36.4111 28.3249 35.6165C29.3999 34.8219 29.9375 33.5599 29.9375 31.8305V31.7603H26.6422C26.1281 31.7603 25.684 31.5734 25.3101 31.1995C24.9362 30.8255 24.7492 30.3815 24.7492 29.8673V22.085C24.7492 21.5709 24.9362 21.1268 25.3101 20.7529C25.684 20.379 26.1281 20.192 26.6422 20.192H45.9228C46.4369 20.192 46.881 20.379 47.2549 20.7529C47.6288 21.1268 47.8158 21.5709 47.8158 22.085V31.1995C47.8158 35.3126 46.7875 38.8182 44.7309 41.7161C42.7211 44.6141 39.8932 46.8109 36.2475 48.3066C32.6484 49.7555 28.4651 50.48 23.6976 50.48Z" fill="white"/>
<path d="M56.0139 49.7789C55.4997 49.7789 55.0557 49.5919 54.6818 49.218C54.3078 48.8441 54.1209 48.4001 54.1209 47.8859V2.59411C54.1209 2.07996 54.3078 1.63593 54.6818 1.262C55.0557 0.888074 55.4997 0.701111 56.0139 0.701111H76.7668C83.4974 0.701111 88.7558 2.22019 92.5418 5.25833C96.3278 8.24974 98.2208 12.4097 98.2208 17.7381C98.2208 20.7763 97.543 23.4639 96.1876 25.8009C94.8321 28.0912 92.9858 29.9842 90.6488 31.4799L99.2725 47.4652C99.4127 47.7457 99.4828 48.0028 99.4828 48.2365C99.4828 48.6571 99.3192 49.0311 98.992 49.3582C98.7116 49.6387 98.361 49.7789 97.9403 49.7789H83.5676C82.7262 49.7789 82.0485 49.5919 81.5343 49.218C81.0669 48.7974 80.7397 48.3533 80.5528 47.8859L74.5232 34.4947H71.6487V47.8859C71.6487 48.4001 71.4617 48.8441 71.0878 49.218C70.7138 49.5919 70.2698 49.7789 69.7557 49.7789H56.0139ZM76.7668 21.1736C77.7951 21.1736 78.5897 20.8464 79.1506 20.192C79.7114 19.4909 79.9919 18.6262 79.9919 17.5979C79.9919 16.5696 79.7114 15.6815 79.1506 14.9337C78.6364 14.1391 77.8418 13.7418 76.7668 13.7418H71.6487V21.1736H76.7668Z" fill="white"/>
<path d="M126.531 50.48C119.52 50.48 113.935 48.8675 109.775 45.6424C105.615 42.4172 103.395 37.7198 103.114 31.55C103.068 30.288 103.044 28.2548 103.044 25.4503C103.044 22.5992 103.068 20.5192 103.114 19.2105C103.255 15.1907 104.306 11.7319 106.269 8.834C108.279 5.93608 111.013 3.73926 114.472 2.24356C117.931 0.747852 121.951 0 126.531 0C131.112 0 135.132 0.747852 138.591 2.24356C142.049 3.73926 144.76 5.93608 146.723 8.834C148.733 11.7319 149.808 15.1907 149.949 19.2105C150.042 21.8279 150.089 23.9079 150.089 25.4503C150.089 26.9928 150.042 29.026 149.949 31.55C149.668 37.7198 147.448 42.4172 143.288 45.6424C139.128 48.8675 133.543 50.48 126.531 50.48ZM126.531 36.8084C128.121 36.8084 129.359 36.3409 130.247 35.4061C131.182 34.4713 131.673 33.0457 131.72 31.1293C131.813 28.4184 131.86 26.4319 131.86 25.1699C131.86 23.8144 131.813 21.8747 131.72 19.3507C131.673 17.4343 131.182 16.0087 130.247 15.0739C129.313 14.1391 128.074 13.6717 126.531 13.6717C124.989 13.6717 123.75 14.1391 122.816 15.0739C121.881 16.0087 121.39 17.4343 121.343 19.3507C121.296 20.6127 121.273 22.5524 121.273 25.1699C121.273 27.7874 121.296 29.7739 121.343 31.1293C121.39 33.0457 121.857 34.4713 122.745 35.4061C123.68 36.3409 124.942 36.8084 126.531 36.8084Z" fill="white"/>
<path d="M163.435 49.7789C162.546 49.7789 161.799 49.5218 161.191 49.0077C160.63 48.4468 160.303 47.8158 160.209 47.1147L153.759 2.45389V2.24356C153.759 1.82289 153.899 1.47233 154.18 1.19189C154.507 0.864704 154.881 0.701111 155.302 0.701111H168.342C169.184 0.701111 169.791 0.841334 170.165 1.12178C170.586 1.40222 170.82 1.893 170.866 2.59411L173.25 22.3655L176.125 13.6016C176.592 12.2461 177.387 11.5683 178.508 11.5683H185.66C186.782 11.5683 187.576 12.2461 188.044 13.6016L190.918 22.2953L193.302 2.59411C193.349 1.893 193.559 1.40222 193.933 1.12178C194.354 0.841334 194.985 0.701111 195.826 0.701111H208.867C209.287 0.701111 209.638 0.864704 209.918 1.19189C210.245 1.47233 210.409 1.82289 210.409 2.24356V2.45389L203.959 47.1147C203.865 47.8158 203.515 48.4468 202.907 49.0077C202.346 49.5218 201.622 49.7789 200.734 49.7789H190.708C189.866 49.7789 189.212 49.5686 188.745 49.1479C188.324 48.7272 188.02 48.3066 187.833 47.8859L182.084 33.5131L176.335 47.8859C176.148 48.3066 175.821 48.7272 175.353 49.1479C174.933 49.5686 174.302 49.7789 173.46 49.7789H163.435Z" fill="white"/>
</svg>
