<svg width="173" height="120" viewBox="0 0 173 120" fill="none" xmlns="http://www.w3.org/2000/svg">
<path d="M106.749 95.2956C101.046 92.9932 96.4311 90.3238 92.906 87.2874C89.3809 84.251 86.7437 81.1247 84.9942 77.9087C83.2447 74.6927 82.2282 71.5484 81.9446 68.4759C81.6921 65.3263 82.0096 62.5413 82.897 60.1208C83.177 59.4271 83.6416 58.9423 84.2908 58.6665C84.9399 58.3907 85.6114 58.3929 86.3051 58.6729L99.0229 63.8066C99.8708 64.1488 100.487 64.6215 100.871 65.2247C101.286 65.7508 101.553 66.5311 101.674 67.5657C101.575 69.5874 102.001 71.4178 102.953 73.0569C103.905 74.696 105.212 76.1202 106.875 77.3294C108.647 78.4926 110.612 79.5098 112.77 80.381C117.086 82.1233 120.882 82.4903 124.157 81.4819C127.433 80.4735 129.802 78.158 131.264 74.5353C132.758 70.8356 132.675 67.7097 131.016 65.1576C129.357 62.6056 126.408 60.474 122.168 58.7628L109.797 53.7691C109.027 53.4579 108.48 52.9237 108.159 52.1664C107.837 51.409 107.832 50.645 108.143 49.8742L110.43 44.209C110.803 43.284 111.268 42.5755 111.825 42.0833C112.46 41.6222 113.032 41.3153 113.542 41.1626L140.802 30.9224L108.198 17.7614C107.35 17.4192 106.765 16.8694 106.443 16.1121C106.121 15.3547 106.116 14.5907 106.427 13.8199L110.161 4.57054C110.503 3.72268 111.053 3.13788 111.81 2.81613C112.568 2.49437 113.37 2.50462 114.218 2.84687L165.552 23.5683C166.4 23.9106 166.985 24.4604 167.306 25.2177C167.628 25.975 167.618 26.7776 167.276 27.6255L163.915 35.9499C163.573 36.7978 163.123 37.4678 162.566 37.96C162.04 38.375 161.484 38.6434 160.897 38.765L134.537 49.7721L135.647 50.3545C140.008 52.6526 143.603 55.4037 146.433 58.6077C149.263 61.8117 151.011 65.4753 151.677 69.5986C152.452 73.676 151.828 78.2197 149.805 83.2297C147.69 88.471 144.443 92.4045 140.067 95.0301C135.691 97.6557 130.616 99.0135 124.843 99.1033C119.101 99.1161 113.07 97.8468 106.749 95.2956Z" fill="url(#paint0_linear_226_3807)" fill-opacity="0.803"/>
<path d="M54.8534 102.816C54.0536 103.042 53.2545 102.966 52.4563 102.587C51.738 102.186 51.2544 101.545 51.0054 100.665L34.133 41.04L20.6256 59.2453C20.0642 60.0089 19.361 60.4238 18.5159 60.4902C17.7508 60.5339 16.9865 60.2751 16.2229 59.7137L8.01777 53.6131C7.33419 53.029 6.91924 52.3258 6.77289 51.5034C6.70653 50.6583 6.96536 49.894 7.54939 49.2104L28.9276 20.3554C29.317 19.8997 29.7003 19.5753 30.0776 19.3821C30.5122 19.0864 31.0094 18.8593 31.5693 18.7008L44.2861 15.1023C45.0859 14.876 45.845 14.9635 46.5633 15.365C47.2815 15.7664 47.7652 16.407 48.0141 17.2868L70.0807 95.2674C70.3296 96.1472 70.2534 96.9462 69.8519 97.6645C69.4505 98.3828 68.8499 98.8551 68.0501 99.0814L54.8534 102.816Z" fill="url(#paint1_linear_226_3807)"/>
<path d="M52.4697 119.943C51.5554 119.943 50.8073 119.652 50.2255 119.07C49.6436 118.488 49.3527 117.74 49.3527 116.826V109.345C49.3527 108.68 49.519 107.807 49.8514 106.727C50.267 105.563 51.1398 104.441 52.4697 103.361L68.9276 87.0273C74.9954 82.3725 79.8996 78.4243 83.64 75.1826C87.4635 71.9409 90.2896 68.9901 92.1183 66.3303C93.9469 63.6704 94.8613 61.0937 94.8613 58.6C94.8613 55.3583 93.9469 52.6985 92.1183 50.6205C90.3728 48.4593 87.5051 47.3788 83.5153 47.3788C80.8554 47.3788 78.6112 47.9606 76.7825 49.1243C75.037 50.2049 73.6655 51.6595 72.6681 53.4881C71.6706 55.3168 71.0056 57.3117 70.6732 59.4728C70.4238 60.5534 69.8835 61.3015 69.0523 61.7171C68.3042 62.1327 67.5146 62.3405 66.6834 62.3405H53.4672C52.636 62.3405 51.971 62.0911 51.4723 61.5924C50.9736 61.0105 50.7242 60.3871 50.7242 59.7222C50.8073 55.8986 51.597 52.2829 53.0932 48.8749C54.6724 45.467 56.8751 42.4331 59.7012 39.7732C62.5273 37.1134 65.9353 35.0353 69.9251 33.5392C73.9149 31.9599 78.4449 31.1702 83.5153 31.1702C90.4974 31.1702 96.3574 32.3339 101.095 34.6613C105.833 36.9056 109.407 40.0226 111.818 44.0124C114.228 48.0022 115.434 52.6153 115.434 57.852C115.434 61.8417 114.602 65.5406 112.94 68.9486C111.361 72.3565 109.033 75.6398 105.958 78.7984C102.882 81.8738 99.2251 85.074 94.986 88.3988L80.2736 103.111H114.187C115.101 103.111 115.849 103.402 116.431 103.984C117.013 104.566 117.304 105.314 117.304 106.228V116.826C117.304 117.74 117.013 118.488 116.431 119.07C115.849 119.652 115.101 119.943 114.187 119.943H52.4697Z" fill="url(#paint2_linear_226_3807)"/>
<defs>
<linearGradient id="paint0_linear_226_3807" x1="139.943" y1="13.2309" x2="106.807" y2="95.3189" gradientUnits="userSpaceOnUse">
<stop stop-color="#8A7DB5"/>
<stop offset="1" stop-color="#674CBD"/>
</linearGradient>
<linearGradient id="paint1_linear_226_3807" x1="23.5827" y1="20.9608" x2="47.3467" y2="104.94" gradientUnits="userSpaceOnUse">
<stop stop-color="#F5A89C"/>
<stop offset="1" stop-color="#F98D7C"/>
</linearGradient>
<linearGradient id="paint2_linear_226_3807" x1="83.3283" y1="31.1702" x2="83.3283" y2="119.943" gradientUnits="userSpaceOnUse">
<stop stop-color="#FBDD75"/>
<stop offset="1" stop-color="#FFBB0D"/>
</linearGradient>
</defs>
</svg>
