<svg width="180" height="136" viewBox="0 0 180 136" fill="none" xmlns="http://www.w3.org/2000/svg">
<ellipse cx="90.6319" cy="36.1531" rx="36.727" ry="36.1531" fill="url(#paint0_linear_226_3812)" fill-opacity="0.803"/>
<path d="M109.041 13.3485L166.87 67.2756L91.2535 90.3935L109.041 13.3485Z" fill="url(#paint1_linear_226_3812)"/>
<rect x="18.4398" y="15.6914" width="66.6164" height="66.6164" transform="rotate(16.0697 18.4398 15.6914)" fill="url(#paint2_linear_226_3812)"/>
<rect x="45.348" y="54.4592" width="81.488" height="80.9141" rx="12" fill="url(#paint3_linear_226_3812)"/>
<path d="M82.2871 108.15C81.9458 108.15 81.6471 108.022 81.3911 107.766C81.1351 107.51 81.0071 107.211 81.0071 106.87C81.0071 106.571 81.0071 106.273 81.0071 105.974C81.0071 105.675 81.0071 105.377 81.0071 105.078C81.2204 103.499 81.6898 102.091 82.4151 100.854C83.1831 99.574 84.0578 98.4007 85.0391 97.334C86.0631 96.2673 87.0658 95.286 88.0471 94.39C89.0284 93.4513 89.8604 92.5127 90.5431 91.574C91.2258 90.6353 91.5884 89.6967 91.6311 88.758C91.7591 87.6487 91.5458 86.7313 90.9911 86.006C90.4791 85.238 89.7538 84.662 88.8151 84.278C87.9191 83.8513 86.9591 83.638 85.9351 83.638C84.0578 83.638 82.5431 84.1073 81.3911 85.046C80.2818 85.942 79.5138 87.3287 79.0871 89.206C78.9164 89.6753 78.6818 90.038 78.3831 90.294C78.0844 90.55 77.6791 90.678 77.1671 90.678H70.5111C70.1271 90.678 69.7858 90.5287 69.4871 90.23C69.1884 89.9313 69.0391 89.5473 69.0391 89.078C69.0818 87.3713 69.4871 85.7073 70.2551 84.086C71.0231 82.4647 72.1538 81.014 73.6471 79.734C75.1404 78.4113 76.9538 77.366 79.0871 76.598C81.2204 75.83 83.6951 75.446 86.5111 75.446C89.5831 75.446 92.1218 75.83 94.1271 76.598C96.1751 77.366 97.7964 78.3687 98.9911 79.606C100.228 80.8007 101.103 82.102 101.615 83.51C102.127 84.8753 102.34 86.1767 102.255 87.414C102.212 88.9927 101.871 90.422 101.231 91.702C100.634 92.9393 99.8871 94.0913 98.9911 95.158C98.1378 96.2247 97.2204 97.27 96.2391 98.294C95.3004 99.2753 94.4471 100.278 93.6791 101.302C92.9538 102.326 92.4204 103.393 92.0791 104.502C91.9938 104.843 91.9084 105.185 91.8231 105.526C91.7804 105.825 91.7378 106.145 91.6951 106.486C91.4818 107.041 91.2471 107.467 90.9911 107.766C90.7351 108.022 90.3511 108.15 89.8391 108.15H82.2871ZM82.2871 120.886C81.8178 120.886 81.4338 120.737 81.1351 120.438C80.8364 120.139 80.6871 119.755 80.6871 119.286V112.886C80.6871 112.459 80.8364 112.097 81.1351 111.798C81.4338 111.457 81.8178 111.286 82.2871 111.286H89.4551C89.8818 111.286 90.2444 111.457 90.5431 111.798C90.8844 112.097 91.0551 112.459 91.0551 112.886V119.286C91.0551 119.755 90.8844 120.139 90.5431 120.438C90.2444 120.737 89.8818 120.886 89.4551 120.886H82.2871Z" fill="#503F92"/>
<defs>
<linearGradient id="paint0_linear_226_3812" x1="90.6319" y1="0" x2="90.6319" y2="72.3062" gradientUnits="userSpaceOnUse">
<stop stop-color="#8A7DB5"/>
<stop offset="1" stop-color="#674CBD"/>
</linearGradient>
<linearGradient id="paint1_linear_226_3812" x1="109.041" y1="13.3485" x2="135.735" y2="100.663" gradientUnits="userSpaceOnUse">
<stop stop-color="#FBDD75"/>
<stop offset="1" stop-color="#FFBB0D"/>
</linearGradient>
<linearGradient id="paint2_linear_226_3812" x1="51.748" y1="15.6914" x2="51.748" y2="82.3078" gradientUnits="userSpaceOnUse">
<stop stop-color="#F5A89C"/>
<stop offset="1" stop-color="#F98D7C"/>
</linearGradient>
<linearGradient id="paint3_linear_226_3812" x1="86.092" y1="54.4592" x2="86.092" y2="135.373" gradientUnits="userSpaceOnUse">
<stop stop-color="#C5B5DE"/>
<stop offset="1" stop-color="#A989DA"/>
</linearGradient>
</defs>
</svg>
